%TF.GenerationSoftware,KiCad,Pcbnew,(5.1.7)-1*%
%TF.CreationDate,2021-06-20T23:27:28+01:00*%
%TF.ProjectId,RcDev,52634465-762e-46b6-9963-61645f706362,rev?*%
%TF.SameCoordinates,Original*%
%TF.FileFunction,Legend,Top*%
%TF.FilePolarity,Positive*%
%FSLAX46Y46*%
G04 Gerber Fmt 4.6, Leading zero omitted, Abs format (unit mm)*
G04 Created by KiCad (PCBNEW (5.1.7)-1) date 2021-06-20 23:27:28*
%MOMM*%
%LPD*%
G01*
G04 APERTURE LIST*
%TA.AperFunction,Profile*%
%ADD10C,0.050000*%
%TD*%
%ADD11C,0.120000*%
%ADD12C,0.150000*%
%ADD13C,0.100000*%
G04 APERTURE END LIST*
D10*
X131038600Y-50292000D02*
X151130000Y-50292000D01*
X105689400Y-50266600D02*
X105664000Y-79349600D01*
X127254000Y-50292000D02*
X105689400Y-50266600D01*
X127279400Y-79349600D02*
X127254000Y-50292000D01*
X105664000Y-79349600D02*
X127279400Y-79349600D01*
X131064000Y-78765400D02*
X131038600Y-50292000D01*
X151130000Y-78740000D02*
X131064000Y-78765400D01*
X151130000Y-50292000D02*
X151130000Y-78740000D01*
D11*
%TO.C,J9*%
X150199400Y-70265600D02*
X148869400Y-70265600D01*
X150199400Y-68935600D02*
X150199400Y-70265600D01*
X150199400Y-67665600D02*
X147539400Y-67665600D01*
X147539400Y-67665600D02*
X147539400Y-65065600D01*
X150199400Y-67665600D02*
X150199400Y-65065600D01*
X150199400Y-65065600D02*
X147539400Y-65065600D01*
%TO.C,J6*%
X147514000Y-51629000D02*
X148844000Y-51629000D01*
X147514000Y-52959000D02*
X147514000Y-51629000D01*
X147514000Y-54229000D02*
X150174000Y-54229000D01*
X150174000Y-54229000D02*
X150174000Y-56829000D01*
X147514000Y-54229000D02*
X147514000Y-56829000D01*
X147514000Y-56829000D02*
X150174000Y-56829000D01*
%TO.C,SW1*%
X145973800Y-72720200D02*
X137845800Y-72720200D01*
X137845800Y-72720200D02*
X137845800Y-76276200D01*
X137845800Y-76276200D02*
X145973800Y-76276200D01*
X145973800Y-76276200D02*
X145973800Y-72720200D01*
%TO.C,J7*%
X133421500Y-77546500D02*
X132471500Y-76096500D01*
X133421500Y-69646500D02*
X135071500Y-69646500D01*
X133421500Y-69646500D02*
X132471500Y-71096500D01*
X135071500Y-69646500D02*
X135371500Y-69946500D01*
X135371500Y-77246500D02*
X135071500Y-77546500D01*
X135071500Y-77546500D02*
X133421500Y-77546500D01*
X135371500Y-76746500D02*
X135371500Y-77246500D01*
X135371500Y-70596500D02*
X135371500Y-69946500D01*
X135371500Y-70596500D02*
X135371500Y-76796500D01*
X132471500Y-71046500D02*
X132471500Y-76146500D01*
%TO.C,D2*%
X133209800Y-61956000D02*
X132744800Y-61956000D01*
X135834800Y-61956000D02*
X135369800Y-61956000D01*
X133209371Y-66770479D02*
G75*
G02*
X133209800Y-62261316I1080429J2254479D01*
G01*
X135370229Y-66770479D02*
G75*
G03*
X135369800Y-62261316I-1080429J2254479D01*
G01*
X133208973Y-67303815D02*
G75*
G02*
X132744970Y-61956000I1080827J2787815D01*
G01*
X135370627Y-67303815D02*
G75*
G03*
X135834630Y-61956000I-1080827J2787815D01*
G01*
%TO.C,R4*%
X125550600Y-69213464D02*
X125550600Y-68759336D01*
X124080600Y-69213464D02*
X124080600Y-68759336D01*
%TO.C,R5*%
X124182136Y-72591600D02*
X124636264Y-72591600D01*
X124182136Y-71121600D02*
X124636264Y-71121600D01*
%TO.C,U1*%
X114808000Y-64829000D02*
X111208000Y-64829000D01*
X114808000Y-64829000D02*
X117008000Y-64829000D01*
X114808000Y-70299000D02*
X112608000Y-70299000D01*
X114808000Y-70299000D02*
X117008000Y-70299000D01*
%TO.C,R6*%
X106757800Y-65000136D02*
X106757800Y-65454264D01*
X108227800Y-65000136D02*
X108227800Y-65454264D01*
%TO.C,R3*%
X108456400Y-57097664D02*
X108456400Y-56643536D01*
X106986400Y-57097664D02*
X106986400Y-56643536D01*
%TO.C,R2*%
X106961000Y-53239936D02*
X106961000Y-53694064D01*
X108431000Y-53239936D02*
X108431000Y-53694064D01*
%TO.C,R1*%
X119153000Y-65939936D02*
X119153000Y-66394064D01*
X120623000Y-65939936D02*
X120623000Y-66394064D01*
%TO.C,K2*%
X137479500Y-62029500D02*
X144139500Y-62019500D01*
X144139500Y-62019500D02*
X144139500Y-62519500D01*
X144139500Y-64119500D02*
X144139500Y-65519500D01*
X144139500Y-67119500D02*
X144139500Y-67919500D01*
X144139500Y-69519500D02*
X144139500Y-70119500D01*
X144139500Y-71719500D02*
X144139500Y-72219500D01*
X144139500Y-72219500D02*
X137439500Y-72219500D01*
X137439500Y-72219500D02*
X137439500Y-71719500D01*
X137439500Y-70119500D02*
X137439500Y-69519500D01*
X137439500Y-67919500D02*
X137439500Y-67119500D01*
X137479500Y-65429500D02*
X137479500Y-64029500D01*
X137479500Y-62029500D02*
X137479500Y-62529500D01*
X137479500Y-62529500D02*
X136879500Y-62529500D01*
X137479500Y-64029500D02*
X136879500Y-64029500D01*
%TO.C,K1*%
X137479500Y-51298000D02*
X144139500Y-51288000D01*
X144139500Y-51288000D02*
X144139500Y-51788000D01*
X144139500Y-53388000D02*
X144139500Y-54788000D01*
X144139500Y-56388000D02*
X144139500Y-57188000D01*
X144139500Y-58788000D02*
X144139500Y-59388000D01*
X144139500Y-60988000D02*
X144139500Y-61488000D01*
X144139500Y-61488000D02*
X137439500Y-61488000D01*
X137439500Y-61488000D02*
X137439500Y-60988000D01*
X137439500Y-59388000D02*
X137439500Y-58788000D01*
X137439500Y-57188000D02*
X137439500Y-56388000D01*
X137479500Y-54698000D02*
X137479500Y-53298000D01*
X137479500Y-51298000D02*
X137479500Y-51798000D01*
X137479500Y-51798000D02*
X136879500Y-51798000D01*
X137479500Y-53298000D02*
X136879500Y-53298000D01*
%TO.C,J8*%
X147539400Y-58309200D02*
X148869400Y-58309200D01*
X147539400Y-59639200D02*
X147539400Y-58309200D01*
X147539400Y-60909200D02*
X150199400Y-60909200D01*
X150199400Y-60909200D02*
X150199400Y-63509200D01*
X147539400Y-60909200D02*
X147539400Y-63509200D01*
X147539400Y-63509200D02*
X150199400Y-63509200D01*
%TO.C,D1*%
X133209800Y-52100800D02*
X132744800Y-52100800D01*
X135834800Y-52100800D02*
X135369800Y-52100800D01*
X133209371Y-56915279D02*
G75*
G02*
X133209800Y-52406116I1080429J2254479D01*
G01*
X135370229Y-56915279D02*
G75*
G03*
X135369800Y-52406116I-1080429J2254479D01*
G01*
X133208973Y-57448615D02*
G75*
G02*
X132744970Y-52100800I1080827J2787815D01*
G01*
X135370627Y-57448615D02*
G75*
G03*
X135834630Y-52100800I-1080827J2787815D01*
G01*
%TO.C,C5*%
X135866200Y-74211548D02*
X135866200Y-74734052D01*
X137336200Y-74211548D02*
X137336200Y-74734052D01*
%TO.C,C3*%
X134180948Y-60983800D02*
X134703452Y-60983800D01*
X134180948Y-59513800D02*
X134703452Y-59513800D01*
%TO.C,C2*%
X108993000Y-65905748D02*
X108993000Y-66428252D01*
X110463000Y-65905748D02*
X110463000Y-66428252D01*
D12*
%TO.C,U2*%
X109524000Y-45364500D02*
X121824000Y-45364500D01*
D11*
X109524000Y-64364500D02*
X121824000Y-64364500D01*
X121824000Y-64364500D02*
X121824000Y-50364500D01*
X121824000Y-50364500D02*
X109524000Y-50364500D01*
X109524000Y-50364500D02*
X109524000Y-64364500D01*
X109524000Y-50364500D02*
X109524000Y-45364500D01*
X121824000Y-50364500D02*
X121824000Y-45364500D01*
%TO.C,C7*%
X108253200Y-68394948D02*
X108253200Y-68917452D01*
X106783200Y-68394948D02*
X106783200Y-68917452D01*
%TD*%
%TO.C,J9*%
D13*
X146113533Y-64687504D02*
X146113533Y-65258933D01*
X146075438Y-65373219D01*
X145999247Y-65449409D01*
X145884961Y-65487504D01*
X145808771Y-65487504D01*
X146532580Y-65487504D02*
X146684961Y-65487504D01*
X146761152Y-65449409D01*
X146799247Y-65411314D01*
X146875438Y-65297028D01*
X146913533Y-65144647D01*
X146913533Y-64839885D01*
X146875438Y-64763695D01*
X146837342Y-64725600D01*
X146761152Y-64687504D01*
X146608771Y-64687504D01*
X146532580Y-64725600D01*
X146494485Y-64763695D01*
X146456390Y-64839885D01*
X146456390Y-65030361D01*
X146494485Y-65106552D01*
X146532580Y-65144647D01*
X146608771Y-65182742D01*
X146761152Y-65182742D01*
X146837342Y-65144647D01*
X146875438Y-65106552D01*
X146913533Y-65030361D01*
%TO.C,J6*%
X146113533Y-51225504D02*
X146113533Y-51796933D01*
X146075438Y-51911219D01*
X145999247Y-51987409D01*
X145884961Y-52025504D01*
X145808771Y-52025504D01*
X146837342Y-51225504D02*
X146684961Y-51225504D01*
X146608771Y-51263600D01*
X146570676Y-51301695D01*
X146494485Y-51415980D01*
X146456390Y-51568361D01*
X146456390Y-51873123D01*
X146494485Y-51949314D01*
X146532580Y-51987409D01*
X146608771Y-52025504D01*
X146761152Y-52025504D01*
X146837342Y-51987409D01*
X146875438Y-51949314D01*
X146913533Y-51873123D01*
X146913533Y-51682647D01*
X146875438Y-51606457D01*
X146837342Y-51568361D01*
X146761152Y-51530266D01*
X146608771Y-51530266D01*
X146532580Y-51568361D01*
X146494485Y-51606457D01*
X146456390Y-51682647D01*
%TO.C,SW1*%
X146253333Y-76219009D02*
X146367619Y-76257104D01*
X146558095Y-76257104D01*
X146634285Y-76219009D01*
X146672380Y-76180914D01*
X146710476Y-76104723D01*
X146710476Y-76028533D01*
X146672380Y-75952342D01*
X146634285Y-75914247D01*
X146558095Y-75876152D01*
X146405714Y-75838057D01*
X146329523Y-75799961D01*
X146291428Y-75761866D01*
X146253333Y-75685676D01*
X146253333Y-75609485D01*
X146291428Y-75533295D01*
X146329523Y-75495200D01*
X146405714Y-75457104D01*
X146596190Y-75457104D01*
X146710476Y-75495200D01*
X146977142Y-75457104D02*
X147167619Y-76257104D01*
X147320000Y-75685676D01*
X147472380Y-76257104D01*
X147662857Y-75457104D01*
X148386666Y-76257104D02*
X147929523Y-76257104D01*
X148158095Y-76257104D02*
X148158095Y-75457104D01*
X148081904Y-75571390D01*
X148005714Y-75647580D01*
X147929523Y-75685676D01*
%TO.C,J7*%
X131737133Y-76549304D02*
X131737133Y-77120733D01*
X131699038Y-77235019D01*
X131622847Y-77311209D01*
X131508561Y-77349304D01*
X131432371Y-77349304D01*
X132041895Y-76549304D02*
X132575228Y-76549304D01*
X132232371Y-77349304D01*
%TO.C,D2*%
X134715323Y-68662504D02*
X134715323Y-67862504D01*
X134905800Y-67862504D01*
X135020085Y-67900600D01*
X135096276Y-67976790D01*
X135134371Y-68052980D01*
X135172466Y-68205361D01*
X135172466Y-68319647D01*
X135134371Y-68472028D01*
X135096276Y-68548219D01*
X135020085Y-68624409D01*
X134905800Y-68662504D01*
X134715323Y-68662504D01*
X135477228Y-67938695D02*
X135515323Y-67900600D01*
X135591514Y-67862504D01*
X135781990Y-67862504D01*
X135858180Y-67900600D01*
X135896276Y-67938695D01*
X135934371Y-68014885D01*
X135934371Y-68091076D01*
X135896276Y-68205361D01*
X135439133Y-68662504D01*
X135934371Y-68662504D01*
%TO.C,R4*%
X123729704Y-68179933D02*
X123348752Y-68446600D01*
X123729704Y-68637076D02*
X122929704Y-68637076D01*
X122929704Y-68332314D01*
X122967800Y-68256123D01*
X123005895Y-68218028D01*
X123082085Y-68179933D01*
X123196371Y-68179933D01*
X123272561Y-68218028D01*
X123310657Y-68256123D01*
X123348752Y-68332314D01*
X123348752Y-68637076D01*
X123196371Y-67494219D02*
X123729704Y-67494219D01*
X122891609Y-67684695D02*
X123463038Y-67875171D01*
X123463038Y-67379933D01*
%TO.C,R5*%
X122612104Y-72294733D02*
X122231152Y-72561400D01*
X122612104Y-72751876D02*
X121812104Y-72751876D01*
X121812104Y-72447114D01*
X121850200Y-72370923D01*
X121888295Y-72332828D01*
X121964485Y-72294733D01*
X122078771Y-72294733D01*
X122154961Y-72332828D01*
X122193057Y-72370923D01*
X122231152Y-72447114D01*
X122231152Y-72751876D01*
X121812104Y-71570923D02*
X121812104Y-71951876D01*
X122193057Y-71989971D01*
X122154961Y-71951876D01*
X122116866Y-71875685D01*
X122116866Y-71685209D01*
X122154961Y-71609019D01*
X122193057Y-71570923D01*
X122269247Y-71532828D01*
X122459723Y-71532828D01*
X122535914Y-71570923D01*
X122574009Y-71609019D01*
X122612104Y-71685209D01*
X122612104Y-71875685D01*
X122574009Y-71951876D01*
X122535914Y-71989971D01*
%TO.C,U1*%
X111048876Y-70402504D02*
X111048876Y-71050123D01*
X111086971Y-71126314D01*
X111125066Y-71164409D01*
X111201257Y-71202504D01*
X111353638Y-71202504D01*
X111429828Y-71164409D01*
X111467923Y-71126314D01*
X111506019Y-71050123D01*
X111506019Y-70402504D01*
X112306019Y-71202504D02*
X111848876Y-71202504D01*
X112077447Y-71202504D02*
X112077447Y-70402504D01*
X112001257Y-70516790D01*
X111925066Y-70592980D01*
X111848876Y-70631076D01*
%TO.C,R6*%
X107372104Y-62922133D02*
X106991152Y-63188800D01*
X107372104Y-63379276D02*
X106572104Y-63379276D01*
X106572104Y-63074514D01*
X106610200Y-62998323D01*
X106648295Y-62960228D01*
X106724485Y-62922133D01*
X106838771Y-62922133D01*
X106914961Y-62960228D01*
X106953057Y-62998323D01*
X106991152Y-63074514D01*
X106991152Y-63379276D01*
X106572104Y-62236419D02*
X106572104Y-62388800D01*
X106610200Y-62464990D01*
X106648295Y-62503085D01*
X106762580Y-62579276D01*
X106914961Y-62617371D01*
X107219723Y-62617371D01*
X107295914Y-62579276D01*
X107334009Y-62541180D01*
X107372104Y-62464990D01*
X107372104Y-62312609D01*
X107334009Y-62236419D01*
X107295914Y-62198323D01*
X107219723Y-62160228D01*
X107029247Y-62160228D01*
X106953057Y-62198323D01*
X106914961Y-62236419D01*
X106876866Y-62312609D01*
X106876866Y-62464990D01*
X106914961Y-62541180D01*
X106953057Y-62579276D01*
X107029247Y-62617371D01*
%TO.C,R3*%
X107676904Y-59391533D02*
X107295952Y-59658200D01*
X107676904Y-59848676D02*
X106876904Y-59848676D01*
X106876904Y-59543914D01*
X106915000Y-59467723D01*
X106953095Y-59429628D01*
X107029285Y-59391533D01*
X107143571Y-59391533D01*
X107219761Y-59429628D01*
X107257857Y-59467723D01*
X107295952Y-59543914D01*
X107295952Y-59848676D01*
X106876904Y-59124866D02*
X106876904Y-58629628D01*
X107181666Y-58896295D01*
X107181666Y-58782009D01*
X107219761Y-58705819D01*
X107257857Y-58667723D01*
X107334047Y-58629628D01*
X107524523Y-58629628D01*
X107600714Y-58667723D01*
X107638809Y-58705819D01*
X107676904Y-58782009D01*
X107676904Y-59010580D01*
X107638809Y-59086771D01*
X107600714Y-59124866D01*
%TO.C,R2*%
X107676904Y-51212733D02*
X107295952Y-51479400D01*
X107676904Y-51669876D02*
X106876904Y-51669876D01*
X106876904Y-51365114D01*
X106915000Y-51288923D01*
X106953095Y-51250828D01*
X107029285Y-51212733D01*
X107143571Y-51212733D01*
X107219761Y-51250828D01*
X107257857Y-51288923D01*
X107295952Y-51365114D01*
X107295952Y-51669876D01*
X106953095Y-50907971D02*
X106915000Y-50869876D01*
X106876904Y-50793685D01*
X106876904Y-50603209D01*
X106915000Y-50527019D01*
X106953095Y-50488923D01*
X107029285Y-50450828D01*
X107105476Y-50450828D01*
X107219761Y-50488923D01*
X107676904Y-50946066D01*
X107676904Y-50450828D01*
%TO.C,R1*%
X121748504Y-65106533D02*
X121367552Y-65373200D01*
X121748504Y-65563676D02*
X120948504Y-65563676D01*
X120948504Y-65258914D01*
X120986600Y-65182723D01*
X121024695Y-65144628D01*
X121100885Y-65106533D01*
X121215171Y-65106533D01*
X121291361Y-65144628D01*
X121329457Y-65182723D01*
X121367552Y-65258914D01*
X121367552Y-65563676D01*
X121748504Y-64344628D02*
X121748504Y-64801771D01*
X121748504Y-64573200D02*
X120948504Y-64573200D01*
X121062790Y-64649390D01*
X121138980Y-64725580D01*
X121177076Y-64801771D01*
%TO.C,K2*%
X145586523Y-71380304D02*
X145586523Y-70580304D01*
X146043666Y-71380304D02*
X145700809Y-70923161D01*
X146043666Y-70580304D02*
X145586523Y-71037447D01*
X146348428Y-70656495D02*
X146386523Y-70618400D01*
X146462714Y-70580304D01*
X146653190Y-70580304D01*
X146729380Y-70618400D01*
X146767476Y-70656495D01*
X146805571Y-70732685D01*
X146805571Y-70808876D01*
X146767476Y-70923161D01*
X146310333Y-71380304D01*
X146805571Y-71380304D01*
%TO.C,K1*%
X134664523Y-51339704D02*
X134664523Y-50539704D01*
X135121666Y-51339704D02*
X134778809Y-50882561D01*
X135121666Y-50539704D02*
X134664523Y-50996847D01*
X135883571Y-51339704D02*
X135426428Y-51339704D01*
X135655000Y-51339704D02*
X135655000Y-50539704D01*
X135578809Y-50653990D01*
X135502619Y-50730180D01*
X135426428Y-50768276D01*
%TO.C,J8*%
X146113533Y-57880304D02*
X146113533Y-58451733D01*
X146075438Y-58566019D01*
X145999247Y-58642209D01*
X145884961Y-58680304D01*
X145808771Y-58680304D01*
X146608771Y-58223161D02*
X146532580Y-58185066D01*
X146494485Y-58146971D01*
X146456390Y-58070780D01*
X146456390Y-58032685D01*
X146494485Y-57956495D01*
X146532580Y-57918400D01*
X146608771Y-57880304D01*
X146761152Y-57880304D01*
X146837342Y-57918400D01*
X146875438Y-57956495D01*
X146913533Y-58032685D01*
X146913533Y-58070780D01*
X146875438Y-58146971D01*
X146837342Y-58185066D01*
X146761152Y-58223161D01*
X146608771Y-58223161D01*
X146532580Y-58261257D01*
X146494485Y-58299352D01*
X146456390Y-58375542D01*
X146456390Y-58527923D01*
X146494485Y-58604114D01*
X146532580Y-58642209D01*
X146608771Y-58680304D01*
X146761152Y-58680304D01*
X146837342Y-58642209D01*
X146875438Y-58604114D01*
X146913533Y-58527923D01*
X146913533Y-58375542D01*
X146875438Y-58299352D01*
X146837342Y-58261257D01*
X146761152Y-58223161D01*
%TO.C,D1*%
X134867723Y-58756504D02*
X134867723Y-57956504D01*
X135058200Y-57956504D01*
X135172485Y-57994600D01*
X135248676Y-58070790D01*
X135286771Y-58146980D01*
X135324866Y-58299361D01*
X135324866Y-58413647D01*
X135286771Y-58566028D01*
X135248676Y-58642219D01*
X135172485Y-58718409D01*
X135058200Y-58756504D01*
X134867723Y-58756504D01*
X136086771Y-58756504D02*
X135629628Y-58756504D01*
X135858200Y-58756504D02*
X135858200Y-57956504D01*
X135782009Y-58070790D01*
X135705819Y-58146980D01*
X135629628Y-58185076D01*
%TO.C,C5*%
X136429714Y-77069933D02*
X136467809Y-77108028D01*
X136505904Y-77222314D01*
X136505904Y-77298504D01*
X136467809Y-77412790D01*
X136391619Y-77488980D01*
X136315428Y-77527076D01*
X136163047Y-77565171D01*
X136048761Y-77565171D01*
X135896380Y-77527076D01*
X135820190Y-77488980D01*
X135744000Y-77412790D01*
X135705904Y-77298504D01*
X135705904Y-77222314D01*
X135744000Y-77108028D01*
X135782095Y-77069933D01*
X135705904Y-76346123D02*
X135705904Y-76727076D01*
X136086857Y-76765171D01*
X136048761Y-76727076D01*
X136010666Y-76650885D01*
X136010666Y-76460409D01*
X136048761Y-76384219D01*
X136086857Y-76346123D01*
X136163047Y-76308028D01*
X136353523Y-76308028D01*
X136429714Y-76346123D01*
X136467809Y-76384219D01*
X136505904Y-76460409D01*
X136505904Y-76650885D01*
X136467809Y-76727076D01*
X136429714Y-76765171D01*
%TO.C,C3*%
X131845066Y-61067914D02*
X131806971Y-61106009D01*
X131692685Y-61144104D01*
X131616495Y-61144104D01*
X131502209Y-61106009D01*
X131426019Y-61029819D01*
X131387923Y-60953628D01*
X131349828Y-60801247D01*
X131349828Y-60686961D01*
X131387923Y-60534580D01*
X131426019Y-60458390D01*
X131502209Y-60382200D01*
X131616495Y-60344104D01*
X131692685Y-60344104D01*
X131806971Y-60382200D01*
X131845066Y-60420295D01*
X132111733Y-60344104D02*
X132606971Y-60344104D01*
X132340304Y-60648866D01*
X132454590Y-60648866D01*
X132530780Y-60686961D01*
X132568876Y-60725057D01*
X132606971Y-60801247D01*
X132606971Y-60991723D01*
X132568876Y-61067914D01*
X132530780Y-61106009D01*
X132454590Y-61144104D01*
X132226019Y-61144104D01*
X132149828Y-61106009D01*
X132111733Y-61067914D01*
%TO.C,C2*%
X109505714Y-68789533D02*
X109543809Y-68827628D01*
X109581904Y-68941914D01*
X109581904Y-69018104D01*
X109543809Y-69132390D01*
X109467619Y-69208580D01*
X109391428Y-69246676D01*
X109239047Y-69284771D01*
X109124761Y-69284771D01*
X108972380Y-69246676D01*
X108896190Y-69208580D01*
X108820000Y-69132390D01*
X108781904Y-69018104D01*
X108781904Y-68941914D01*
X108820000Y-68827628D01*
X108858095Y-68789533D01*
X108858095Y-68484771D02*
X108820000Y-68446676D01*
X108781904Y-68370485D01*
X108781904Y-68180009D01*
X108820000Y-68103819D01*
X108858095Y-68065723D01*
X108934285Y-68027628D01*
X109010476Y-68027628D01*
X109124761Y-68065723D01*
X109581904Y-68522866D01*
X109581904Y-68027628D01*
%TO.C,U2*%
X122497904Y-57429323D02*
X123145523Y-57429323D01*
X123221714Y-57391228D01*
X123259809Y-57353133D01*
X123297904Y-57276942D01*
X123297904Y-57124561D01*
X123259809Y-57048371D01*
X123221714Y-57010276D01*
X123145523Y-56972180D01*
X122497904Y-56972180D01*
X122574095Y-56629323D02*
X122536000Y-56591228D01*
X122497904Y-56515038D01*
X122497904Y-56324561D01*
X122536000Y-56248371D01*
X122574095Y-56210276D01*
X122650285Y-56172180D01*
X122726476Y-56172180D01*
X122840761Y-56210276D01*
X123297904Y-56667419D01*
X123297904Y-56172180D01*
%TO.C,C7*%
X107295914Y-71304133D02*
X107334009Y-71342228D01*
X107372104Y-71456514D01*
X107372104Y-71532704D01*
X107334009Y-71646990D01*
X107257819Y-71723180D01*
X107181628Y-71761276D01*
X107029247Y-71799371D01*
X106914961Y-71799371D01*
X106762580Y-71761276D01*
X106686390Y-71723180D01*
X106610200Y-71646990D01*
X106572104Y-71532704D01*
X106572104Y-71456514D01*
X106610200Y-71342228D01*
X106648295Y-71304133D01*
X106572104Y-71037466D02*
X106572104Y-70504133D01*
X107372104Y-70846990D01*
%TD*%
M02*
