%TF.GenerationSoftware,KiCad,Pcbnew,(5.1.7)-1*%
%TF.CreationDate,2021-06-20T23:27:28+01:00*%
%TF.ProjectId,RcDev,52634465-762e-46b6-9963-61645f706362,rev?*%
%TF.SameCoordinates,Original*%
%TF.FileFunction,Soldermask,Top*%
%TF.FilePolarity,Negative*%
%FSLAX46Y46*%
G04 Gerber Fmt 4.6, Leading zero omitted, Abs format (unit mm)*
G04 Created by KiCad (PCBNEW (5.1.7)-1) date 2021-06-20 23:27:28*
%MOMM*%
%LPD*%
G01*
G04 APERTURE LIST*
%TA.AperFunction,Profile*%
%ADD10C,0.050000*%
%TD*%
%ADD11O,1.700000X1.700000*%
%ADD12R,1.700000X1.700000*%
%ADD13C,2.000000*%
%ADD14C,0.900000*%
%ADD15O,2.050000X1.050000*%
%ADD16O,1.800000X1.070000*%
%ADD17R,1.800000X1.070000*%
%ADD18R,1.800000X0.800000*%
%ADD19R,1.000000X0.900000*%
G04 APERTURE END LIST*
D10*
X131038600Y-50292000D02*
X151130000Y-50292000D01*
X105689400Y-50266600D02*
X105664000Y-79349600D01*
X127254000Y-50292000D02*
X105689400Y-50266600D01*
X127279400Y-79349600D02*
X127254000Y-50292000D01*
X105664000Y-79349600D02*
X127279400Y-79349600D01*
X131064000Y-78765400D02*
X131038600Y-50292000D01*
X151130000Y-78740000D02*
X131064000Y-78765400D01*
X151130000Y-50292000D02*
X151130000Y-78740000D01*
D11*
%TO.C,J9*%
X148869400Y-66395600D03*
D12*
X148869400Y-68935600D03*
%TD*%
D11*
%TO.C,J6*%
X148844000Y-55499000D03*
D12*
X148844000Y-52959000D03*
%TD*%
%TO.C,J10*%
X123977400Y-74828400D03*
D11*
X123977400Y-77368400D03*
%TD*%
D13*
%TO.C,SW1*%
X139369800Y-74498200D03*
X141909800Y-74498200D03*
X144449800Y-74498200D03*
%TD*%
D14*
%TO.C,J7*%
X133291500Y-74246500D03*
X133291500Y-72946500D03*
X134291500Y-74896500D03*
X134291500Y-72296500D03*
X134291500Y-73596500D03*
D15*
X134021500Y-77171500D03*
X134021500Y-70021500D03*
%TD*%
D16*
%TO.C,D2*%
X134289800Y-66421000D03*
X134289800Y-65151000D03*
X134289800Y-63881000D03*
D17*
X134289800Y-62611000D03*
%TD*%
%TO.C,R4*%
G36*
G01*
X125265601Y-68586400D02*
X124365599Y-68586400D01*
G75*
G02*
X124115600Y-68336401I0J249999D01*
G01*
X124115600Y-67811399D01*
G75*
G02*
X124365599Y-67561400I249999J0D01*
G01*
X125265601Y-67561400D01*
G75*
G02*
X125515600Y-67811399I0J-249999D01*
G01*
X125515600Y-68336401D01*
G75*
G02*
X125265601Y-68586400I-249999J0D01*
G01*
G37*
G36*
G01*
X125265601Y-70411400D02*
X124365599Y-70411400D01*
G75*
G02*
X124115600Y-70161401I0J249999D01*
G01*
X124115600Y-69636399D01*
G75*
G02*
X124365599Y-69386400I249999J0D01*
G01*
X125265601Y-69386400D01*
G75*
G02*
X125515600Y-69636399I0J-249999D01*
G01*
X125515600Y-70161401D01*
G75*
G02*
X125265601Y-70411400I-249999J0D01*
G01*
G37*
%TD*%
D11*
%TO.C,J5*%
X120142000Y-72263000D03*
X120142000Y-74803000D03*
D12*
X120142000Y-77343000D03*
%TD*%
%TO.C,R5*%
G36*
G01*
X124809200Y-72306601D02*
X124809200Y-71406599D01*
G75*
G02*
X125059199Y-71156600I249999J0D01*
G01*
X125584201Y-71156600D01*
G75*
G02*
X125834200Y-71406599I0J-249999D01*
G01*
X125834200Y-72306601D01*
G75*
G02*
X125584201Y-72556600I-249999J0D01*
G01*
X125059199Y-72556600D01*
G75*
G02*
X124809200Y-72306601I0J249999D01*
G01*
G37*
G36*
G01*
X122984200Y-72306601D02*
X122984200Y-71406599D01*
G75*
G02*
X123234199Y-71156600I249999J0D01*
G01*
X123759201Y-71156600D01*
G75*
G02*
X124009200Y-71406599I0J-249999D01*
G01*
X124009200Y-72306601D01*
G75*
G02*
X123759201Y-72556600I-249999J0D01*
G01*
X123234199Y-72556600D01*
G75*
G02*
X122984200Y-72306601I0J249999D01*
G01*
G37*
%TD*%
%TO.C,U1*%
G36*
G01*
X116933000Y-65389000D02*
X116933000Y-65189000D01*
G75*
G02*
X117033000Y-65089000I100000J0D01*
G01*
X118308000Y-65089000D01*
G75*
G02*
X118408000Y-65189000I0J-100000D01*
G01*
X118408000Y-65389000D01*
G75*
G02*
X118308000Y-65489000I-100000J0D01*
G01*
X117033000Y-65489000D01*
G75*
G02*
X116933000Y-65389000I0J100000D01*
G01*
G37*
G36*
G01*
X116933000Y-66039000D02*
X116933000Y-65839000D01*
G75*
G02*
X117033000Y-65739000I100000J0D01*
G01*
X118308000Y-65739000D01*
G75*
G02*
X118408000Y-65839000I0J-100000D01*
G01*
X118408000Y-66039000D01*
G75*
G02*
X118308000Y-66139000I-100000J0D01*
G01*
X117033000Y-66139000D01*
G75*
G02*
X116933000Y-66039000I0J100000D01*
G01*
G37*
G36*
G01*
X116933000Y-66689000D02*
X116933000Y-66489000D01*
G75*
G02*
X117033000Y-66389000I100000J0D01*
G01*
X118308000Y-66389000D01*
G75*
G02*
X118408000Y-66489000I0J-100000D01*
G01*
X118408000Y-66689000D01*
G75*
G02*
X118308000Y-66789000I-100000J0D01*
G01*
X117033000Y-66789000D01*
G75*
G02*
X116933000Y-66689000I0J100000D01*
G01*
G37*
G36*
G01*
X116933000Y-67339000D02*
X116933000Y-67139000D01*
G75*
G02*
X117033000Y-67039000I100000J0D01*
G01*
X118308000Y-67039000D01*
G75*
G02*
X118408000Y-67139000I0J-100000D01*
G01*
X118408000Y-67339000D01*
G75*
G02*
X118308000Y-67439000I-100000J0D01*
G01*
X117033000Y-67439000D01*
G75*
G02*
X116933000Y-67339000I0J100000D01*
G01*
G37*
G36*
G01*
X116933000Y-67989000D02*
X116933000Y-67789000D01*
G75*
G02*
X117033000Y-67689000I100000J0D01*
G01*
X118308000Y-67689000D01*
G75*
G02*
X118408000Y-67789000I0J-100000D01*
G01*
X118408000Y-67989000D01*
G75*
G02*
X118308000Y-68089000I-100000J0D01*
G01*
X117033000Y-68089000D01*
G75*
G02*
X116933000Y-67989000I0J100000D01*
G01*
G37*
G36*
G01*
X116933000Y-68639000D02*
X116933000Y-68439000D01*
G75*
G02*
X117033000Y-68339000I100000J0D01*
G01*
X118308000Y-68339000D01*
G75*
G02*
X118408000Y-68439000I0J-100000D01*
G01*
X118408000Y-68639000D01*
G75*
G02*
X118308000Y-68739000I-100000J0D01*
G01*
X117033000Y-68739000D01*
G75*
G02*
X116933000Y-68639000I0J100000D01*
G01*
G37*
G36*
G01*
X116933000Y-69289000D02*
X116933000Y-69089000D01*
G75*
G02*
X117033000Y-68989000I100000J0D01*
G01*
X118308000Y-68989000D01*
G75*
G02*
X118408000Y-69089000I0J-100000D01*
G01*
X118408000Y-69289000D01*
G75*
G02*
X118308000Y-69389000I-100000J0D01*
G01*
X117033000Y-69389000D01*
G75*
G02*
X116933000Y-69289000I0J100000D01*
G01*
G37*
G36*
G01*
X116933000Y-69939000D02*
X116933000Y-69739000D01*
G75*
G02*
X117033000Y-69639000I100000J0D01*
G01*
X118308000Y-69639000D01*
G75*
G02*
X118408000Y-69739000I0J-100000D01*
G01*
X118408000Y-69939000D01*
G75*
G02*
X118308000Y-70039000I-100000J0D01*
G01*
X117033000Y-70039000D01*
G75*
G02*
X116933000Y-69939000I0J100000D01*
G01*
G37*
G36*
G01*
X111208000Y-69939000D02*
X111208000Y-69739000D01*
G75*
G02*
X111308000Y-69639000I100000J0D01*
G01*
X112583000Y-69639000D01*
G75*
G02*
X112683000Y-69739000I0J-100000D01*
G01*
X112683000Y-69939000D01*
G75*
G02*
X112583000Y-70039000I-100000J0D01*
G01*
X111308000Y-70039000D01*
G75*
G02*
X111208000Y-69939000I0J100000D01*
G01*
G37*
G36*
G01*
X111208000Y-69289000D02*
X111208000Y-69089000D01*
G75*
G02*
X111308000Y-68989000I100000J0D01*
G01*
X112583000Y-68989000D01*
G75*
G02*
X112683000Y-69089000I0J-100000D01*
G01*
X112683000Y-69289000D01*
G75*
G02*
X112583000Y-69389000I-100000J0D01*
G01*
X111308000Y-69389000D01*
G75*
G02*
X111208000Y-69289000I0J100000D01*
G01*
G37*
G36*
G01*
X111208000Y-68639000D02*
X111208000Y-68439000D01*
G75*
G02*
X111308000Y-68339000I100000J0D01*
G01*
X112583000Y-68339000D01*
G75*
G02*
X112683000Y-68439000I0J-100000D01*
G01*
X112683000Y-68639000D01*
G75*
G02*
X112583000Y-68739000I-100000J0D01*
G01*
X111308000Y-68739000D01*
G75*
G02*
X111208000Y-68639000I0J100000D01*
G01*
G37*
G36*
G01*
X111208000Y-67989000D02*
X111208000Y-67789000D01*
G75*
G02*
X111308000Y-67689000I100000J0D01*
G01*
X112583000Y-67689000D01*
G75*
G02*
X112683000Y-67789000I0J-100000D01*
G01*
X112683000Y-67989000D01*
G75*
G02*
X112583000Y-68089000I-100000J0D01*
G01*
X111308000Y-68089000D01*
G75*
G02*
X111208000Y-67989000I0J100000D01*
G01*
G37*
G36*
G01*
X111208000Y-67339000D02*
X111208000Y-67139000D01*
G75*
G02*
X111308000Y-67039000I100000J0D01*
G01*
X112583000Y-67039000D01*
G75*
G02*
X112683000Y-67139000I0J-100000D01*
G01*
X112683000Y-67339000D01*
G75*
G02*
X112583000Y-67439000I-100000J0D01*
G01*
X111308000Y-67439000D01*
G75*
G02*
X111208000Y-67339000I0J100000D01*
G01*
G37*
G36*
G01*
X111208000Y-66689000D02*
X111208000Y-66489000D01*
G75*
G02*
X111308000Y-66389000I100000J0D01*
G01*
X112583000Y-66389000D01*
G75*
G02*
X112683000Y-66489000I0J-100000D01*
G01*
X112683000Y-66689000D01*
G75*
G02*
X112583000Y-66789000I-100000J0D01*
G01*
X111308000Y-66789000D01*
G75*
G02*
X111208000Y-66689000I0J100000D01*
G01*
G37*
G36*
G01*
X111208000Y-66039000D02*
X111208000Y-65839000D01*
G75*
G02*
X111308000Y-65739000I100000J0D01*
G01*
X112583000Y-65739000D01*
G75*
G02*
X112683000Y-65839000I0J-100000D01*
G01*
X112683000Y-66039000D01*
G75*
G02*
X112583000Y-66139000I-100000J0D01*
G01*
X111308000Y-66139000D01*
G75*
G02*
X111208000Y-66039000I0J100000D01*
G01*
G37*
G36*
G01*
X111208000Y-65389000D02*
X111208000Y-65189000D01*
G75*
G02*
X111308000Y-65089000I100000J0D01*
G01*
X112583000Y-65089000D01*
G75*
G02*
X112683000Y-65189000I0J-100000D01*
G01*
X112683000Y-65389000D01*
G75*
G02*
X112583000Y-65489000I-100000J0D01*
G01*
X111308000Y-65489000D01*
G75*
G02*
X111208000Y-65389000I0J100000D01*
G01*
G37*
%TD*%
%TO.C,R6*%
G36*
G01*
X107042799Y-65627200D02*
X107942801Y-65627200D01*
G75*
G02*
X108192800Y-65877199I0J-249999D01*
G01*
X108192800Y-66402201D01*
G75*
G02*
X107942801Y-66652200I-249999J0D01*
G01*
X107042799Y-66652200D01*
G75*
G02*
X106792800Y-66402201I0J249999D01*
G01*
X106792800Y-65877199D01*
G75*
G02*
X107042799Y-65627200I249999J0D01*
G01*
G37*
G36*
G01*
X107042799Y-63802200D02*
X107942801Y-63802200D01*
G75*
G02*
X108192800Y-64052199I0J-249999D01*
G01*
X108192800Y-64577201D01*
G75*
G02*
X107942801Y-64827200I-249999J0D01*
G01*
X107042799Y-64827200D01*
G75*
G02*
X106792800Y-64577201I0J249999D01*
G01*
X106792800Y-64052199D01*
G75*
G02*
X107042799Y-63802200I249999J0D01*
G01*
G37*
%TD*%
%TO.C,R3*%
G36*
G01*
X108171401Y-56470600D02*
X107271399Y-56470600D01*
G75*
G02*
X107021400Y-56220601I0J249999D01*
G01*
X107021400Y-55695599D01*
G75*
G02*
X107271399Y-55445600I249999J0D01*
G01*
X108171401Y-55445600D01*
G75*
G02*
X108421400Y-55695599I0J-249999D01*
G01*
X108421400Y-56220601D01*
G75*
G02*
X108171401Y-56470600I-249999J0D01*
G01*
G37*
G36*
G01*
X108171401Y-58295600D02*
X107271399Y-58295600D01*
G75*
G02*
X107021400Y-58045601I0J249999D01*
G01*
X107021400Y-57520599D01*
G75*
G02*
X107271399Y-57270600I249999J0D01*
G01*
X108171401Y-57270600D01*
G75*
G02*
X108421400Y-57520599I0J-249999D01*
G01*
X108421400Y-58045601D01*
G75*
G02*
X108171401Y-58295600I-249999J0D01*
G01*
G37*
%TD*%
%TO.C,R2*%
G36*
G01*
X107245999Y-53867000D02*
X108146001Y-53867000D01*
G75*
G02*
X108396000Y-54116999I0J-249999D01*
G01*
X108396000Y-54642001D01*
G75*
G02*
X108146001Y-54892000I-249999J0D01*
G01*
X107245999Y-54892000D01*
G75*
G02*
X106996000Y-54642001I0J249999D01*
G01*
X106996000Y-54116999D01*
G75*
G02*
X107245999Y-53867000I249999J0D01*
G01*
G37*
G36*
G01*
X107245999Y-52042000D02*
X108146001Y-52042000D01*
G75*
G02*
X108396000Y-52291999I0J-249999D01*
G01*
X108396000Y-52817001D01*
G75*
G02*
X108146001Y-53067000I-249999J0D01*
G01*
X107245999Y-53067000D01*
G75*
G02*
X106996000Y-52817001I0J249999D01*
G01*
X106996000Y-52291999D01*
G75*
G02*
X107245999Y-52042000I249999J0D01*
G01*
G37*
%TD*%
%TO.C,R1*%
G36*
G01*
X119437999Y-66567000D02*
X120338001Y-66567000D01*
G75*
G02*
X120588000Y-66816999I0J-249999D01*
G01*
X120588000Y-67342001D01*
G75*
G02*
X120338001Y-67592000I-249999J0D01*
G01*
X119437999Y-67592000D01*
G75*
G02*
X119188000Y-67342001I0J249999D01*
G01*
X119188000Y-66816999D01*
G75*
G02*
X119437999Y-66567000I249999J0D01*
G01*
G37*
G36*
G01*
X119437999Y-64742000D02*
X120338001Y-64742000D01*
G75*
G02*
X120588000Y-64991999I0J-249999D01*
G01*
X120588000Y-65517001D01*
G75*
G02*
X120338001Y-65767000I-249999J0D01*
G01*
X119437999Y-65767000D01*
G75*
G02*
X119188000Y-65517001I0J249999D01*
G01*
X119188000Y-64991999D01*
G75*
G02*
X119437999Y-64742000I249999J0D01*
G01*
G37*
%TD*%
D18*
%TO.C,K2*%
X137279500Y-63319500D03*
X137279500Y-66519500D03*
X137279500Y-68719500D03*
X137279500Y-70919500D03*
X144279500Y-70919500D03*
X144279500Y-68719500D03*
X144279500Y-66519500D03*
X144279500Y-63319500D03*
%TD*%
%TO.C,K1*%
X137279500Y-52588000D03*
X137279500Y-55788000D03*
X137279500Y-57988000D03*
X137279500Y-60188000D03*
X144279500Y-60188000D03*
X144279500Y-57988000D03*
X144279500Y-55788000D03*
X144279500Y-52588000D03*
%TD*%
D11*
%TO.C,J8*%
X148869400Y-62179200D03*
D12*
X148869400Y-59639200D03*
%TD*%
D11*
%TO.C,J4*%
X108712000Y-72263000D03*
X108712000Y-74803000D03*
D12*
X108712000Y-77343000D03*
%TD*%
D11*
%TO.C,J2*%
X116332000Y-72263000D03*
X116332000Y-74803000D03*
D12*
X116332000Y-77343000D03*
%TD*%
D11*
%TO.C,J1*%
X112522000Y-72263000D03*
X112522000Y-74803000D03*
D12*
X112522000Y-77343000D03*
%TD*%
D16*
%TO.C,D1*%
X134289800Y-56565800D03*
X134289800Y-55295800D03*
X134289800Y-54025800D03*
D17*
X134289800Y-52755800D03*
%TD*%
%TO.C,C5*%
G36*
G01*
X136126200Y-74922800D02*
X137076200Y-74922800D01*
G75*
G02*
X137326200Y-75172800I0J-250000D01*
G01*
X137326200Y-75672800D01*
G75*
G02*
X137076200Y-75922800I-250000J0D01*
G01*
X136126200Y-75922800D01*
G75*
G02*
X135876200Y-75672800I0J250000D01*
G01*
X135876200Y-75172800D01*
G75*
G02*
X136126200Y-74922800I250000J0D01*
G01*
G37*
G36*
G01*
X136126200Y-73022800D02*
X137076200Y-73022800D01*
G75*
G02*
X137326200Y-73272800I0J-250000D01*
G01*
X137326200Y-73772800D01*
G75*
G02*
X137076200Y-74022800I-250000J0D01*
G01*
X136126200Y-74022800D01*
G75*
G02*
X135876200Y-73772800I0J250000D01*
G01*
X135876200Y-73272800D01*
G75*
G02*
X136126200Y-73022800I250000J0D01*
G01*
G37*
%TD*%
%TO.C,C3*%
G36*
G01*
X134892200Y-60723800D02*
X134892200Y-59773800D01*
G75*
G02*
X135142200Y-59523800I250000J0D01*
G01*
X135642200Y-59523800D01*
G75*
G02*
X135892200Y-59773800I0J-250000D01*
G01*
X135892200Y-60723800D01*
G75*
G02*
X135642200Y-60973800I-250000J0D01*
G01*
X135142200Y-60973800D01*
G75*
G02*
X134892200Y-60723800I0J250000D01*
G01*
G37*
G36*
G01*
X132992200Y-60723800D02*
X132992200Y-59773800D01*
G75*
G02*
X133242200Y-59523800I250000J0D01*
G01*
X133742200Y-59523800D01*
G75*
G02*
X133992200Y-59773800I0J-250000D01*
G01*
X133992200Y-60723800D01*
G75*
G02*
X133742200Y-60973800I-250000J0D01*
G01*
X133242200Y-60973800D01*
G75*
G02*
X132992200Y-60723800I0J250000D01*
G01*
G37*
%TD*%
%TO.C,C2*%
G36*
G01*
X109253000Y-66617000D02*
X110203000Y-66617000D01*
G75*
G02*
X110453000Y-66867000I0J-250000D01*
G01*
X110453000Y-67367000D01*
G75*
G02*
X110203000Y-67617000I-250000J0D01*
G01*
X109253000Y-67617000D01*
G75*
G02*
X109003000Y-67367000I0J250000D01*
G01*
X109003000Y-66867000D01*
G75*
G02*
X109253000Y-66617000I250000J0D01*
G01*
G37*
G36*
G01*
X109253000Y-64717000D02*
X110203000Y-64717000D01*
G75*
G02*
X110453000Y-64967000I0J-250000D01*
G01*
X110453000Y-65467000D01*
G75*
G02*
X110203000Y-65717000I-250000J0D01*
G01*
X109253000Y-65717000D01*
G75*
G02*
X109003000Y-65467000I0J250000D01*
G01*
X109003000Y-64967000D01*
G75*
G02*
X109253000Y-64717000I250000J0D01*
G01*
G37*
%TD*%
D19*
%TO.C,U2*%
X109474000Y-63563500D03*
X109474000Y-62039500D03*
X109474000Y-60515500D03*
X109474000Y-58991500D03*
X109474000Y-57467500D03*
X109474000Y-55943500D03*
X109474000Y-54419500D03*
X121793000Y-63563500D03*
X121793000Y-62039500D03*
X121793000Y-60515500D03*
X121793000Y-58991500D03*
X121793000Y-57467500D03*
X121793000Y-55943500D03*
X121793000Y-54419500D03*
X121793000Y-52895500D03*
X121793000Y-51371500D03*
%TD*%
D12*
%TO.C,J3*%
X124650500Y-52578000D03*
D11*
X124650500Y-55118000D03*
X124650500Y-57658000D03*
X124650500Y-60198000D03*
X124650500Y-62738000D03*
X124650500Y-65278000D03*
%TD*%
%TO.C,C7*%
G36*
G01*
X107043200Y-67206200D02*
X107993200Y-67206200D01*
G75*
G02*
X108243200Y-67456200I0J-250000D01*
G01*
X108243200Y-67956200D01*
G75*
G02*
X107993200Y-68206200I-250000J0D01*
G01*
X107043200Y-68206200D01*
G75*
G02*
X106793200Y-67956200I0J250000D01*
G01*
X106793200Y-67456200D01*
G75*
G02*
X107043200Y-67206200I250000J0D01*
G01*
G37*
G36*
G01*
X107043200Y-69106200D02*
X107993200Y-69106200D01*
G75*
G02*
X108243200Y-69356200I0J-250000D01*
G01*
X108243200Y-69856200D01*
G75*
G02*
X107993200Y-70106200I-250000J0D01*
G01*
X107043200Y-70106200D01*
G75*
G02*
X106793200Y-69856200I0J250000D01*
G01*
X106793200Y-69356200D01*
G75*
G02*
X107043200Y-69106200I250000J0D01*
G01*
G37*
%TD*%
M02*
