M48
; DRILL file {KiCad (5.1.7)-1} date 06/20/21 23:27:36
; FORMAT={-:-/ absolute / metric / decimal}
; #@! TF.CreationDate,2021-06-20T23:27:36+01:00
; #@! TF.GenerationSoftware,Kicad,Pcbnew,(5.1.7)-1
; #@! TF.FileFunction,Plated,1,2,PTH
FMAT,2
METRIC
T1C0.350
T2C0.400
T3C0.900
T4C1.000
%
G90
G05
T2
X107.696Y-51.257
X107.772Y-60.757
X107.772Y-62.407
X107.825Y-59.381
X110.185Y-69.825
X119.38Y-69.596
X121.361Y-66.065
X121.361Y-67.793
X122.529Y-64.795
X123.269Y-68.526
X123.317Y-70.307
X126.314Y-74.066
X131.928Y-51.054
X132.182Y-60.249
X132.248Y-58.465
X135.179Y-68.555
X136.246Y-77.064
X146.075Y-63.17
X146.075Y-64.999
X146.075Y-69.647
X146.075Y-71.577
X146.355Y-54.864
X146.38Y-53.645
X146.888Y-75.514
X133.291Y-72.947
X133.291Y-74.246
X134.291Y-72.296
X134.291Y-73.596
X134.291Y-74.897
T3
X134.29Y-62.611
X134.29Y-63.881
X134.29Y-65.151
X134.29Y-66.421
X124.65Y-52.578
X124.65Y-55.118
X124.65Y-57.658
X124.65Y-60.198
X124.65Y-62.738
X124.65Y-65.278
X134.29Y-52.756
X134.29Y-54.026
X134.29Y-55.296
X134.29Y-56.566
T4
X116.332Y-72.263
X116.332Y-74.803
X116.332Y-77.343
X120.142Y-72.263
X120.142Y-74.803
X120.142Y-77.343
X108.712Y-72.263
X108.712Y-74.803
X108.712Y-77.343
X148.869Y-59.639
X148.869Y-62.179
X148.869Y-66.396
X148.869Y-68.936
X112.522Y-72.263
X112.522Y-74.803
X112.522Y-77.343
X148.844Y-52.959
X148.844Y-55.499
X139.37Y-74.498
X141.91Y-74.498
X144.45Y-74.498
X123.977Y-74.828
X123.977Y-77.368
T1
G00X134.522Y-70.022
M15
G01X133.522Y-70.022
M16
G05
G00X134.522Y-77.171
M15
G01X133.522Y-77.171
M16
G05
T0
M30
