%TF.GenerationSoftware,KiCad,Pcbnew,(5.1.7)-1*%
%TF.CreationDate,2021-06-20T23:27:28+01:00*%
%TF.ProjectId,RcDev,52634465-762e-46b6-9963-61645f706362,rev?*%
%TF.SameCoordinates,Original*%
%TF.FileFunction,Legend,Bot*%
%TF.FilePolarity,Positive*%
%FSLAX46Y46*%
G04 Gerber Fmt 4.6, Leading zero omitted, Abs format (unit mm)*
G04 Created by KiCad (PCBNEW (5.1.7)-1) date 2021-06-20 23:27:28*
%MOMM*%
%LPD*%
G01*
G04 APERTURE LIST*
%TA.AperFunction,Profile*%
%ADD10C,0.050000*%
%TD*%
%ADD11C,0.120000*%
%ADD12C,0.100000*%
G04 APERTURE END LIST*
D10*
X131038600Y-50292000D02*
X151130000Y-50292000D01*
X105689400Y-50266600D02*
X105664000Y-79349600D01*
X127254000Y-50292000D02*
X105689400Y-50266600D01*
X127279400Y-79349600D02*
X127254000Y-50292000D01*
X105664000Y-79349600D02*
X127279400Y-79349600D01*
X131064000Y-78765400D02*
X131038600Y-50292000D01*
X151130000Y-78740000D02*
X131064000Y-78765400D01*
X151130000Y-50292000D02*
X151130000Y-78740000D01*
D11*
%TO.C,J10*%
X125307400Y-73498400D02*
X123977400Y-73498400D01*
X125307400Y-74828400D02*
X125307400Y-73498400D01*
X125307400Y-76098400D02*
X122647400Y-76098400D01*
X122647400Y-76098400D02*
X122647400Y-78698400D01*
X125307400Y-76098400D02*
X125307400Y-78698400D01*
X125307400Y-78698400D02*
X122647400Y-78698400D01*
%TO.C,C6*%
X139718148Y-71375600D02*
X140240652Y-71375600D01*
X139718148Y-72845600D02*
X140240652Y-72845600D01*
%TO.C,U3*%
X140589000Y-55733000D02*
X144039000Y-55733000D01*
X140589000Y-55733000D02*
X138639000Y-55733000D01*
X140589000Y-60853000D02*
X142539000Y-60853000D01*
X140589000Y-60853000D02*
X138639000Y-60853000D01*
%TO.C,J5*%
X118812000Y-78673000D02*
X120142000Y-78673000D01*
X118812000Y-77343000D02*
X118812000Y-78673000D01*
X118812000Y-76073000D02*
X121472000Y-76073000D01*
X121472000Y-76073000D02*
X121472000Y-70933000D01*
X118812000Y-76073000D02*
X118812000Y-70933000D01*
X118812000Y-70933000D02*
X121472000Y-70933000D01*
%TO.C,V1*%
X113152000Y-60382000D02*
X113152000Y-61482000D01*
X112882000Y-60382000D02*
X113152000Y-60382000D01*
X112882000Y-58882000D02*
X112882000Y-60382000D01*
X119512000Y-60382000D02*
X119512000Y-63212000D01*
X119782000Y-60382000D02*
X119512000Y-60382000D01*
X119782000Y-58882000D02*
X119782000Y-60382000D01*
%TO.C,U4*%
X140589000Y-65766000D02*
X144039000Y-65766000D01*
X140589000Y-65766000D02*
X138639000Y-65766000D01*
X140589000Y-70886000D02*
X142539000Y-70886000D01*
X140589000Y-70886000D02*
X138639000Y-70886000D01*
%TO.C,R12*%
X144680000Y-67537064D02*
X144680000Y-67082936D01*
X146150000Y-67537064D02*
X146150000Y-67082936D01*
%TO.C,R11*%
X134720064Y-60983800D02*
X134265936Y-60983800D01*
X134720064Y-59513800D02*
X134265936Y-59513800D01*
%TO.C,R10*%
X138411936Y-61663000D02*
X142766064Y-61663000D01*
X138411936Y-65083000D02*
X142766064Y-65083000D01*
%TO.C,R9*%
X144680000Y-57504064D02*
X144680000Y-57049936D01*
X146150000Y-57504064D02*
X146150000Y-57049936D01*
%TO.C,R8*%
X136374200Y-53440064D02*
X136374200Y-52985936D01*
X137844200Y-53440064D02*
X137844200Y-52985936D01*
%TO.C,R7*%
X144086864Y-55177000D02*
X139732736Y-55177000D01*
X144086864Y-51757000D02*
X139732736Y-51757000D01*
%TO.C,J4*%
X107382000Y-78673000D02*
X108712000Y-78673000D01*
X107382000Y-77343000D02*
X107382000Y-78673000D01*
X107382000Y-76073000D02*
X110042000Y-76073000D01*
X110042000Y-76073000D02*
X110042000Y-70933000D01*
X107382000Y-76073000D02*
X107382000Y-70933000D01*
X107382000Y-70933000D02*
X110042000Y-70933000D01*
%TO.C,J2*%
X115002000Y-78673000D02*
X116332000Y-78673000D01*
X115002000Y-77343000D02*
X115002000Y-78673000D01*
X115002000Y-76073000D02*
X117662000Y-76073000D01*
X117662000Y-76073000D02*
X117662000Y-70933000D01*
X115002000Y-76073000D02*
X115002000Y-70933000D01*
X115002000Y-70933000D02*
X117662000Y-70933000D01*
%TO.C,J1*%
X111192000Y-78673000D02*
X112522000Y-78673000D01*
X111192000Y-77343000D02*
X111192000Y-78673000D01*
X111192000Y-76073000D02*
X113852000Y-76073000D01*
X113852000Y-76073000D02*
X113852000Y-70933000D01*
X111192000Y-76073000D02*
X111192000Y-70933000D01*
X111192000Y-70933000D02*
X113852000Y-70933000D01*
%TO.C,C4*%
X144680000Y-61094252D02*
X144680000Y-60571748D01*
X146150000Y-61094252D02*
X146150000Y-60571748D01*
%TO.C,C1*%
X110517000Y-54363252D02*
X110517000Y-53840748D01*
X111987000Y-54363252D02*
X111987000Y-53840748D01*
%TO.C,J3*%
X125980500Y-51248000D02*
X124650500Y-51248000D01*
X125980500Y-52578000D02*
X125980500Y-51248000D01*
X125980500Y-53848000D02*
X123320500Y-53848000D01*
X123320500Y-53848000D02*
X123320500Y-66608000D01*
X125980500Y-53848000D02*
X125980500Y-66608000D01*
X125980500Y-66608000D02*
X123320500Y-66608000D01*
%TD*%
%TO.C,J10*%
D12*
X125412419Y-72078904D02*
X125412419Y-72650333D01*
X125450514Y-72764619D01*
X125526704Y-72840809D01*
X125640990Y-72878904D01*
X125717180Y-72878904D01*
X124612419Y-72878904D02*
X125069561Y-72878904D01*
X124840990Y-72878904D02*
X124840990Y-72078904D01*
X124917180Y-72193190D01*
X124993371Y-72269380D01*
X125069561Y-72307476D01*
X124117180Y-72078904D02*
X124040990Y-72078904D01*
X123964800Y-72117000D01*
X123926704Y-72155095D01*
X123888609Y-72231285D01*
X123850514Y-72383666D01*
X123850514Y-72574142D01*
X123888609Y-72726523D01*
X123926704Y-72802714D01*
X123964800Y-72840809D01*
X124040990Y-72878904D01*
X124117180Y-72878904D01*
X124193371Y-72840809D01*
X124231466Y-72802714D01*
X124269561Y-72726523D01*
X124307657Y-72574142D01*
X124307657Y-72383666D01*
X124269561Y-72231285D01*
X124231466Y-72155095D01*
X124193371Y-72117000D01*
X124117180Y-72078904D01*
%TO.C,C6*%
X142627333Y-71888314D02*
X142665428Y-71926409D01*
X142779714Y-71964504D01*
X142855904Y-71964504D01*
X142970190Y-71926409D01*
X143046380Y-71850219D01*
X143084476Y-71774028D01*
X143122571Y-71621647D01*
X143122571Y-71507361D01*
X143084476Y-71354980D01*
X143046380Y-71278790D01*
X142970190Y-71202600D01*
X142855904Y-71164504D01*
X142779714Y-71164504D01*
X142665428Y-71202600D01*
X142627333Y-71240695D01*
X141941619Y-71164504D02*
X142094000Y-71164504D01*
X142170190Y-71202600D01*
X142208285Y-71240695D01*
X142284476Y-71354980D01*
X142322571Y-71507361D01*
X142322571Y-71812123D01*
X142284476Y-71888314D01*
X142246380Y-71926409D01*
X142170190Y-71964504D01*
X142017809Y-71964504D01*
X141941619Y-71926409D01*
X141903523Y-71888314D01*
X141865428Y-71812123D01*
X141865428Y-71621647D01*
X141903523Y-71545457D01*
X141941619Y-71507361D01*
X142017809Y-71469266D01*
X142170190Y-71469266D01*
X142246380Y-71507361D01*
X142284476Y-71545457D01*
X142322571Y-71621647D01*
%TO.C,U3*%
X136778923Y-55645104D02*
X136778923Y-56292723D01*
X136740828Y-56368914D01*
X136702733Y-56407009D01*
X136626542Y-56445104D01*
X136474161Y-56445104D01*
X136397971Y-56407009D01*
X136359876Y-56368914D01*
X136321780Y-56292723D01*
X136321780Y-55645104D01*
X136017019Y-55645104D02*
X135521780Y-55645104D01*
X135788447Y-55949866D01*
X135674161Y-55949866D01*
X135597971Y-55987961D01*
X135559876Y-56026057D01*
X135521780Y-56102247D01*
X135521780Y-56292723D01*
X135559876Y-56368914D01*
X135597971Y-56407009D01*
X135674161Y-56445104D01*
X135902733Y-56445104D01*
X135978923Y-56407009D01*
X136017019Y-56368914D01*
%TO.C,J5*%
X121526266Y-69513504D02*
X121526266Y-70084933D01*
X121564361Y-70199219D01*
X121640552Y-70275409D01*
X121754838Y-70313504D01*
X121831028Y-70313504D01*
X120764361Y-69513504D02*
X121145314Y-69513504D01*
X121183409Y-69894457D01*
X121145314Y-69856361D01*
X121069123Y-69818266D01*
X120878647Y-69818266D01*
X120802457Y-69856361D01*
X120764361Y-69894457D01*
X120726266Y-69970647D01*
X120726266Y-70161123D01*
X120764361Y-70237314D01*
X120802457Y-70275409D01*
X120878647Y-70313504D01*
X121069123Y-70313504D01*
X121145314Y-70275409D01*
X121183409Y-70237314D01*
%TO.C,V1*%
X120002219Y-51377904D02*
X119735552Y-52177904D01*
X119468885Y-51377904D01*
X118783171Y-52177904D02*
X119240314Y-52177904D01*
X119011742Y-52177904D02*
X119011742Y-51377904D01*
X119087933Y-51492190D01*
X119164123Y-51568380D01*
X119240314Y-51606476D01*
%TO.C,U4*%
X136702723Y-65728904D02*
X136702723Y-66376523D01*
X136664628Y-66452714D01*
X136626533Y-66490809D01*
X136550342Y-66528904D01*
X136397961Y-66528904D01*
X136321771Y-66490809D01*
X136283676Y-66452714D01*
X136245580Y-66376523D01*
X136245580Y-65728904D01*
X135521771Y-65995571D02*
X135521771Y-66528904D01*
X135712247Y-65690809D02*
X135902723Y-66262238D01*
X135407485Y-66262238D01*
%TO.C,R12*%
X147300904Y-66109914D02*
X146919952Y-65843247D01*
X147300904Y-65652771D02*
X146500904Y-65652771D01*
X146500904Y-65957533D01*
X146539000Y-66033723D01*
X146577095Y-66071819D01*
X146653285Y-66109914D01*
X146767571Y-66109914D01*
X146843761Y-66071819D01*
X146881857Y-66033723D01*
X146919952Y-65957533D01*
X146919952Y-65652771D01*
X147300904Y-66871819D02*
X147300904Y-66414676D01*
X147300904Y-66643247D02*
X146500904Y-66643247D01*
X146615190Y-66567057D01*
X146691380Y-66490866D01*
X146729476Y-66414676D01*
X146577095Y-67176580D02*
X146539000Y-67214676D01*
X146500904Y-67290866D01*
X146500904Y-67481342D01*
X146539000Y-67557533D01*
X146577095Y-67595628D01*
X146653285Y-67633723D01*
X146729476Y-67633723D01*
X146843761Y-67595628D01*
X147300904Y-67138485D01*
X147300904Y-67633723D01*
%TO.C,R11*%
X136201085Y-59188304D02*
X136467752Y-58807352D01*
X136658228Y-59188304D02*
X136658228Y-58388304D01*
X136353466Y-58388304D01*
X136277276Y-58426400D01*
X136239180Y-58464495D01*
X136201085Y-58540685D01*
X136201085Y-58654971D01*
X136239180Y-58731161D01*
X136277276Y-58769257D01*
X136353466Y-58807352D01*
X136658228Y-58807352D01*
X135439180Y-59188304D02*
X135896323Y-59188304D01*
X135667752Y-59188304D02*
X135667752Y-58388304D01*
X135743942Y-58502590D01*
X135820133Y-58578780D01*
X135896323Y-58616876D01*
X134677276Y-59188304D02*
X135134419Y-59188304D01*
X134905847Y-59188304D02*
X134905847Y-58388304D01*
X134982038Y-58502590D01*
X135058228Y-58578780D01*
X135134419Y-58616876D01*
%TO.C,R10*%
X146107085Y-63861904D02*
X146373752Y-63480952D01*
X146564228Y-63861904D02*
X146564228Y-63061904D01*
X146259466Y-63061904D01*
X146183276Y-63100000D01*
X146145180Y-63138095D01*
X146107085Y-63214285D01*
X146107085Y-63328571D01*
X146145180Y-63404761D01*
X146183276Y-63442857D01*
X146259466Y-63480952D01*
X146564228Y-63480952D01*
X145345180Y-63861904D02*
X145802323Y-63861904D01*
X145573752Y-63861904D02*
X145573752Y-63061904D01*
X145649942Y-63176190D01*
X145726133Y-63252380D01*
X145802323Y-63290476D01*
X144849942Y-63061904D02*
X144773752Y-63061904D01*
X144697561Y-63100000D01*
X144659466Y-63138095D01*
X144621371Y-63214285D01*
X144583276Y-63366666D01*
X144583276Y-63557142D01*
X144621371Y-63709523D01*
X144659466Y-63785714D01*
X144697561Y-63823809D01*
X144773752Y-63861904D01*
X144849942Y-63861904D01*
X144926133Y-63823809D01*
X144964228Y-63785714D01*
X145002323Y-63709523D01*
X145040419Y-63557142D01*
X145040419Y-63366666D01*
X145002323Y-63214285D01*
X144964228Y-63138095D01*
X144926133Y-63100000D01*
X144849942Y-63061904D01*
%TO.C,R9*%
X147326304Y-55772066D02*
X146945352Y-55505400D01*
X147326304Y-55314923D02*
X146526304Y-55314923D01*
X146526304Y-55619685D01*
X146564400Y-55695876D01*
X146602495Y-55733971D01*
X146678685Y-55772066D01*
X146792971Y-55772066D01*
X146869161Y-55733971D01*
X146907257Y-55695876D01*
X146945352Y-55619685D01*
X146945352Y-55314923D01*
X147326304Y-56153019D02*
X147326304Y-56305400D01*
X147288209Y-56381590D01*
X147250114Y-56419685D01*
X147135828Y-56495876D01*
X146983447Y-56533971D01*
X146678685Y-56533971D01*
X146602495Y-56495876D01*
X146564400Y-56457780D01*
X146526304Y-56381590D01*
X146526304Y-56229209D01*
X146564400Y-56153019D01*
X146602495Y-56114923D01*
X146678685Y-56076828D01*
X146869161Y-56076828D01*
X146945352Y-56114923D01*
X146983447Y-56153019D01*
X147021542Y-56229209D01*
X147021542Y-56381590D01*
X146983447Y-56457780D01*
X146945352Y-56495876D01*
X146869161Y-56533971D01*
%TO.C,R8*%
X137547333Y-51365104D02*
X137814000Y-50984152D01*
X138004476Y-51365104D02*
X138004476Y-50565104D01*
X137699714Y-50565104D01*
X137623523Y-50603200D01*
X137585428Y-50641295D01*
X137547333Y-50717485D01*
X137547333Y-50831771D01*
X137585428Y-50907961D01*
X137623523Y-50946057D01*
X137699714Y-50984152D01*
X138004476Y-50984152D01*
X137090190Y-50907961D02*
X137166380Y-50869866D01*
X137204476Y-50831771D01*
X137242571Y-50755580D01*
X137242571Y-50717485D01*
X137204476Y-50641295D01*
X137166380Y-50603200D01*
X137090190Y-50565104D01*
X136937809Y-50565104D01*
X136861619Y-50603200D01*
X136823523Y-50641295D01*
X136785428Y-50717485D01*
X136785428Y-50755580D01*
X136823523Y-50831771D01*
X136861619Y-50869866D01*
X136937809Y-50907961D01*
X137090190Y-50907961D01*
X137166380Y-50946057D01*
X137204476Y-50984152D01*
X137242571Y-51060342D01*
X137242571Y-51212723D01*
X137204476Y-51288914D01*
X137166380Y-51327009D01*
X137090190Y-51365104D01*
X136937809Y-51365104D01*
X136861619Y-51327009D01*
X136823523Y-51288914D01*
X136785428Y-51212723D01*
X136785428Y-51060342D01*
X136823523Y-50984152D01*
X136861619Y-50946057D01*
X136937809Y-50907961D01*
%TO.C,R7*%
X145141933Y-51415904D02*
X145408600Y-51034952D01*
X145599076Y-51415904D02*
X145599076Y-50615904D01*
X145294314Y-50615904D01*
X145218123Y-50654000D01*
X145180028Y-50692095D01*
X145141933Y-50768285D01*
X145141933Y-50882571D01*
X145180028Y-50958761D01*
X145218123Y-50996857D01*
X145294314Y-51034952D01*
X145599076Y-51034952D01*
X144875266Y-50615904D02*
X144341933Y-50615904D01*
X144684790Y-51415904D01*
%TO.C,J4*%
X110096266Y-69513504D02*
X110096266Y-70084933D01*
X110134361Y-70199219D01*
X110210552Y-70275409D01*
X110324838Y-70313504D01*
X110401028Y-70313504D01*
X109372457Y-69780171D02*
X109372457Y-70313504D01*
X109562933Y-69475409D02*
X109753409Y-70046838D01*
X109258171Y-70046838D01*
%TO.C,J2*%
X117716266Y-69513504D02*
X117716266Y-70084933D01*
X117754361Y-70199219D01*
X117830552Y-70275409D01*
X117944838Y-70313504D01*
X118021028Y-70313504D01*
X117373409Y-69589695D02*
X117335314Y-69551600D01*
X117259123Y-69513504D01*
X117068647Y-69513504D01*
X116992457Y-69551600D01*
X116954361Y-69589695D01*
X116916266Y-69665885D01*
X116916266Y-69742076D01*
X116954361Y-69856361D01*
X117411504Y-70313504D01*
X116916266Y-70313504D01*
%TO.C,J1*%
X113931666Y-69513504D02*
X113931666Y-70084933D01*
X113969761Y-70199219D01*
X114045952Y-70275409D01*
X114160238Y-70313504D01*
X114236428Y-70313504D01*
X113131666Y-70313504D02*
X113588809Y-70313504D01*
X113360238Y-70313504D02*
X113360238Y-69513504D01*
X113436428Y-69627790D01*
X113512619Y-69703980D01*
X113588809Y-69742076D01*
%TO.C,C4*%
X147224714Y-59658266D02*
X147262809Y-59620171D01*
X147300904Y-59505885D01*
X147300904Y-59429695D01*
X147262809Y-59315409D01*
X147186619Y-59239219D01*
X147110428Y-59201123D01*
X146958047Y-59163028D01*
X146843761Y-59163028D01*
X146691380Y-59201123D01*
X146615190Y-59239219D01*
X146539000Y-59315409D01*
X146500904Y-59429695D01*
X146500904Y-59505885D01*
X146539000Y-59620171D01*
X146577095Y-59658266D01*
X146767571Y-60343980D02*
X147300904Y-60343980D01*
X146462809Y-60153504D02*
X147034238Y-59963028D01*
X147034238Y-60458266D01*
%TO.C,C1*%
X109823214Y-52952666D02*
X109861309Y-52914571D01*
X109899404Y-52800285D01*
X109899404Y-52724095D01*
X109861309Y-52609809D01*
X109785119Y-52533619D01*
X109708928Y-52495523D01*
X109556547Y-52457428D01*
X109442261Y-52457428D01*
X109289880Y-52495523D01*
X109213690Y-52533619D01*
X109137500Y-52609809D01*
X109099404Y-52724095D01*
X109099404Y-52800285D01*
X109137500Y-52914571D01*
X109175595Y-52952666D01*
X109899404Y-53714571D02*
X109899404Y-53257428D01*
X109899404Y-53486000D02*
X109099404Y-53486000D01*
X109213690Y-53409809D01*
X109289880Y-53333619D01*
X109327976Y-53257428D01*
%TO.C,J3*%
X125933166Y-67379904D02*
X125933166Y-67951333D01*
X125971261Y-68065619D01*
X126047452Y-68141809D01*
X126161738Y-68179904D01*
X126237928Y-68179904D01*
X125628404Y-67379904D02*
X125133166Y-67379904D01*
X125399833Y-67684666D01*
X125285547Y-67684666D01*
X125209357Y-67722761D01*
X125171261Y-67760857D01*
X125133166Y-67837047D01*
X125133166Y-68027523D01*
X125171261Y-68103714D01*
X125209357Y-68141809D01*
X125285547Y-68179904D01*
X125514119Y-68179904D01*
X125590309Y-68141809D01*
X125628404Y-68103714D01*
%TD*%
M02*
