%TF.GenerationSoftware,KiCad,Pcbnew,(5.1.7)-1*%
%TF.CreationDate,2021-06-20T23:27:28+01:00*%
%TF.ProjectId,RcDev,52634465-762e-46b6-9963-61645f706362,rev?*%
%TF.SameCoordinates,Original*%
%TF.FileFunction,Copper,L1,Top*%
%TF.FilePolarity,Positive*%
%FSLAX46Y46*%
G04 Gerber Fmt 4.6, Leading zero omitted, Abs format (unit mm)*
G04 Created by KiCad (PCBNEW (5.1.7)-1) date 2021-06-20 23:27:28*
%MOMM*%
%LPD*%
G01*
G04 APERTURE LIST*
%TA.AperFunction,Profile*%
%ADD10C,0.050000*%
%TD*%
%TA.AperFunction,NonConductor*%
%ADD11C,0.300000*%
%TD*%
%TA.AperFunction,ComponentPad*%
%ADD12O,1.700000X1.700000*%
%TD*%
%TA.AperFunction,ComponentPad*%
%ADD13R,1.700000X1.700000*%
%TD*%
%TA.AperFunction,ComponentPad*%
%ADD14C,2.000000*%
%TD*%
%TA.AperFunction,ComponentPad*%
%ADD15C,0.900000*%
%TD*%
%TA.AperFunction,ComponentPad*%
%ADD16O,2.050000X1.050000*%
%TD*%
%TA.AperFunction,ComponentPad*%
%ADD17O,1.800000X1.070000*%
%TD*%
%TA.AperFunction,ComponentPad*%
%ADD18R,1.800000X1.070000*%
%TD*%
%TA.AperFunction,SMDPad,CuDef*%
%ADD19R,1.800000X0.800000*%
%TD*%
%TA.AperFunction,SMDPad,CuDef*%
%ADD20R,1.000000X0.900000*%
%TD*%
%TA.AperFunction,ViaPad*%
%ADD21C,1.000000*%
%TD*%
%TA.AperFunction,ViaPad*%
%ADD22C,0.800000*%
%TD*%
%TA.AperFunction,Conductor*%
%ADD23C,0.250000*%
%TD*%
G04 APERTURE END LIST*
D10*
X131038600Y-50292000D02*
X151130000Y-50292000D01*
X105689400Y-50266600D02*
X105664000Y-79349600D01*
X127254000Y-50292000D02*
X105689400Y-50266600D01*
X127279400Y-79349600D02*
X127254000Y-50292000D01*
X105664000Y-79349600D02*
X127279400Y-79349600D01*
X131064000Y-78765400D02*
X131038600Y-50292000D01*
X151130000Y-78740000D02*
X131064000Y-78765400D01*
X151130000Y-50292000D02*
X151130000Y-78740000D01*
D11*
X114484114Y-77707371D02*
X114484114Y-78707371D01*
X114126971Y-77135942D02*
X113769828Y-78207371D01*
X114698400Y-78207371D01*
X117737000Y-77283571D02*
X118665571Y-77283571D01*
X118165571Y-77855000D01*
X118379857Y-77855000D01*
X118522714Y-77926428D01*
X118594142Y-77997857D01*
X118665571Y-78140714D01*
X118665571Y-78497857D01*
X118594142Y-78640714D01*
X118522714Y-78712142D01*
X118379857Y-78783571D01*
X117951285Y-78783571D01*
X117808428Y-78712142D01*
X117737000Y-78640714D01*
X110137628Y-77274028D02*
X110209057Y-77202600D01*
X110351914Y-77131171D01*
X110709057Y-77131171D01*
X110851914Y-77202600D01*
X110923342Y-77274028D01*
X110994771Y-77416885D01*
X110994771Y-77559742D01*
X110923342Y-77774028D01*
X110066200Y-78631171D01*
X110994771Y-78631171D01*
X122348571Y-78783571D02*
X121491428Y-78783571D01*
X121920000Y-78783571D02*
X121920000Y-77283571D01*
X121777142Y-77497857D01*
X121634285Y-77640714D01*
X121491428Y-77712142D01*
X138132228Y-76791428D02*
X138203657Y-76720000D01*
X138346514Y-76648571D01*
X138703657Y-76648571D01*
X138846514Y-76720000D01*
X138917942Y-76791428D01*
X138989371Y-76934285D01*
X138989371Y-77077142D01*
X138917942Y-77291428D01*
X138060800Y-78148571D01*
X138989371Y-78148571D01*
X141275085Y-77362857D02*
X141489371Y-77434285D01*
X141560800Y-77505714D01*
X141632228Y-77648571D01*
X141632228Y-77862857D01*
X141560800Y-78005714D01*
X141489371Y-78077142D01*
X141346514Y-78148571D01*
X140775085Y-78148571D01*
X140775085Y-76648571D01*
X141275085Y-76648571D01*
X141417942Y-76720000D01*
X141489371Y-76791428D01*
X141560800Y-76934285D01*
X141560800Y-77077142D01*
X141489371Y-77220000D01*
X141417942Y-77291428D01*
X141275085Y-77362857D01*
X140775085Y-77362857D01*
X142917942Y-78148571D02*
X142917942Y-77362857D01*
X142846514Y-77220000D01*
X142703657Y-77148571D01*
X142417942Y-77148571D01*
X142275085Y-77220000D01*
X142917942Y-78077142D02*
X142775085Y-78148571D01*
X142417942Y-78148571D01*
X142275085Y-78077142D01*
X142203657Y-77934285D01*
X142203657Y-77791428D01*
X142275085Y-77648571D01*
X142417942Y-77577142D01*
X142775085Y-77577142D01*
X142917942Y-77505714D01*
X143417942Y-77148571D02*
X143989371Y-77148571D01*
X143632228Y-76648571D02*
X143632228Y-77934285D01*
X143703657Y-78077142D01*
X143846514Y-78148571D01*
X143989371Y-78148571D01*
X144275085Y-77148571D02*
X144846514Y-77148571D01*
X144489371Y-76648571D02*
X144489371Y-77934285D01*
X144560800Y-78077142D01*
X144703657Y-78148571D01*
X144846514Y-78148571D01*
X147346514Y-78005714D02*
X147275085Y-78077142D01*
X147060800Y-78148571D01*
X146917942Y-78148571D01*
X146703657Y-78077142D01*
X146560800Y-77934285D01*
X146489371Y-77791428D01*
X146417942Y-77505714D01*
X146417942Y-77291428D01*
X146489371Y-77005714D01*
X146560800Y-76862857D01*
X146703657Y-76720000D01*
X146917942Y-76648571D01*
X147060800Y-76648571D01*
X147275085Y-76720000D01*
X147346514Y-76791428D01*
X147775085Y-77148571D02*
X148346514Y-77148571D01*
X147989371Y-76648571D02*
X147989371Y-77934285D01*
X148060800Y-78077142D01*
X148203657Y-78148571D01*
X148346514Y-78148571D01*
X149060800Y-78148571D02*
X148917942Y-78077142D01*
X148846514Y-77934285D01*
X148846514Y-76648571D01*
D12*
%TO.P,J9,2*%
%TO.N,/2+*%
X148869400Y-66395600D03*
D13*
%TO.P,J9,1*%
%TO.N,/2-*%
X148869400Y-68935600D03*
%TD*%
D12*
%TO.P,J6,2*%
%TO.N,/O-*%
X148844000Y-55499000D03*
D13*
%TO.P,J6,1*%
%TO.N,/O+*%
X148844000Y-52959000D03*
%TD*%
%TO.P,J10,1*%
%TO.N,Net-(J10-Pad1)*%
X123977400Y-74828400D03*
D12*
%TO.P,J10,2*%
%TO.N,GND*%
X123977400Y-77368400D03*
%TD*%
D14*
%TO.P,SW1,3*%
%TO.N,N/C*%
X139369800Y-74498200D03*
%TO.P,SW1,2*%
%TO.N,Net-(K2-Pad2)*%
X141909800Y-74498200D03*
%TO.P,SW1,1*%
%TO.N,/O+*%
X144449800Y-74498200D03*
%TD*%
D15*
%TO.P,J7,4*%
%TO.N,N/C*%
X133291500Y-74246500D03*
%TO.P,J7,2*%
X133291500Y-72946500D03*
%TO.P,J7,5*%
%TO.N,GND1*%
X134291500Y-74896500D03*
%TO.P,J7,1*%
%TO.N,Net-(J7-Pad1)*%
X134291500Y-72296500D03*
%TO.P,J7,3*%
%TO.N,N/C*%
X134291500Y-73596500D03*
D16*
%TO.P,J7,6*%
%TO.N,GND1*%
X134021500Y-77171500D03*
X134021500Y-70021500D03*
%TD*%
D17*
%TO.P,D2,4*%
%TO.N,N/C*%
X134289800Y-66421000D03*
%TO.P,D2,3*%
%TO.N,Net-(D2-Pad3)*%
X134289800Y-65151000D03*
%TO.P,D2,2*%
%TO.N,Net-(D2-Pad2)*%
X134289800Y-63881000D03*
D18*
%TO.P,D2,1*%
%TO.N,Net-(D2-Pad1)*%
X134289800Y-62611000D03*
%TD*%
%TO.P,R4,2*%
%TO.N,/Flash*%
%TA.AperFunction,SMDPad,CuDef*%
G36*
G01*
X125265601Y-68586400D02*
X124365599Y-68586400D01*
G75*
G02*
X124115600Y-68336401I0J249999D01*
G01*
X124115600Y-67811399D01*
G75*
G02*
X124365599Y-67561400I249999J0D01*
G01*
X125265601Y-67561400D01*
G75*
G02*
X125515600Y-67811399I0J-249999D01*
G01*
X125515600Y-68336401D01*
G75*
G02*
X125265601Y-68586400I-249999J0D01*
G01*
G37*
%TD.AperFunction*%
%TO.P,R4,1*%
%TO.N,+3V3*%
%TA.AperFunction,SMDPad,CuDef*%
G36*
G01*
X125265601Y-70411400D02*
X124365599Y-70411400D01*
G75*
G02*
X124115600Y-70161401I0J249999D01*
G01*
X124115600Y-69636399D01*
G75*
G02*
X124365599Y-69386400I249999J0D01*
G01*
X125265601Y-69386400D01*
G75*
G02*
X125515600Y-69636399I0J-249999D01*
G01*
X125515600Y-70161401D01*
G75*
G02*
X125265601Y-70411400I-249999J0D01*
G01*
G37*
%TD.AperFunction*%
%TD*%
D12*
%TO.P,J5,3*%
%TO.N,/CH1*%
X120142000Y-72263000D03*
%TO.P,J5,2*%
%TO.N,+BATT*%
X120142000Y-74803000D03*
D13*
%TO.P,J5,1*%
%TO.N,GND*%
X120142000Y-77343000D03*
%TD*%
%TO.P,R5,2*%
%TO.N,/RST*%
%TA.AperFunction,SMDPad,CuDef*%
G36*
G01*
X124809200Y-72306601D02*
X124809200Y-71406599D01*
G75*
G02*
X125059199Y-71156600I249999J0D01*
G01*
X125584201Y-71156600D01*
G75*
G02*
X125834200Y-71406599I0J-249999D01*
G01*
X125834200Y-72306601D01*
G75*
G02*
X125584201Y-72556600I-249999J0D01*
G01*
X125059199Y-72556600D01*
G75*
G02*
X124809200Y-72306601I0J249999D01*
G01*
G37*
%TD.AperFunction*%
%TO.P,R5,1*%
%TO.N,+3V3*%
%TA.AperFunction,SMDPad,CuDef*%
G36*
G01*
X122984200Y-72306601D02*
X122984200Y-71406599D01*
G75*
G02*
X123234199Y-71156600I249999J0D01*
G01*
X123759201Y-71156600D01*
G75*
G02*
X124009200Y-71406599I0J-249999D01*
G01*
X124009200Y-72306601D01*
G75*
G02*
X123759201Y-72556600I-249999J0D01*
G01*
X123234199Y-72556600D01*
G75*
G02*
X122984200Y-72306601I0J249999D01*
G01*
G37*
%TD.AperFunction*%
%TD*%
%TO.P,U1,16*%
%TO.N,+BATT*%
%TA.AperFunction,SMDPad,CuDef*%
G36*
G01*
X116933000Y-65389000D02*
X116933000Y-65189000D01*
G75*
G02*
X117033000Y-65089000I100000J0D01*
G01*
X118308000Y-65089000D01*
G75*
G02*
X118408000Y-65189000I0J-100000D01*
G01*
X118408000Y-65389000D01*
G75*
G02*
X118308000Y-65489000I-100000J0D01*
G01*
X117033000Y-65489000D01*
G75*
G02*
X116933000Y-65389000I0J100000D01*
G01*
G37*
%TD.AperFunction*%
%TO.P,U1,15*%
%TO.N,Net-(R1-Pad2)*%
%TA.AperFunction,SMDPad,CuDef*%
G36*
G01*
X116933000Y-66039000D02*
X116933000Y-65839000D01*
G75*
G02*
X117033000Y-65739000I100000J0D01*
G01*
X118308000Y-65739000D01*
G75*
G02*
X118408000Y-65839000I0J-100000D01*
G01*
X118408000Y-66039000D01*
G75*
G02*
X118308000Y-66139000I-100000J0D01*
G01*
X117033000Y-66139000D01*
G75*
G02*
X116933000Y-66039000I0J100000D01*
G01*
G37*
%TD.AperFunction*%
%TO.P,U1,14*%
%TO.N,Net-(U1-Pad14)*%
%TA.AperFunction,SMDPad,CuDef*%
G36*
G01*
X116933000Y-66689000D02*
X116933000Y-66489000D01*
G75*
G02*
X117033000Y-66389000I100000J0D01*
G01*
X118308000Y-66389000D01*
G75*
G02*
X118408000Y-66489000I0J-100000D01*
G01*
X118408000Y-66689000D01*
G75*
G02*
X118308000Y-66789000I-100000J0D01*
G01*
X117033000Y-66789000D01*
G75*
G02*
X116933000Y-66689000I0J100000D01*
G01*
G37*
%TD.AperFunction*%
%TO.P,U1,13*%
%TO.N,/CH1*%
%TA.AperFunction,SMDPad,CuDef*%
G36*
G01*
X116933000Y-67339000D02*
X116933000Y-67139000D01*
G75*
G02*
X117033000Y-67039000I100000J0D01*
G01*
X118308000Y-67039000D01*
G75*
G02*
X118408000Y-67139000I0J-100000D01*
G01*
X118408000Y-67339000D01*
G75*
G02*
X118308000Y-67439000I-100000J0D01*
G01*
X117033000Y-67439000D01*
G75*
G02*
X116933000Y-67339000I0J100000D01*
G01*
G37*
%TD.AperFunction*%
%TO.P,U1,12*%
%TO.N,N/C*%
%TA.AperFunction,SMDPad,CuDef*%
G36*
G01*
X116933000Y-67989000D02*
X116933000Y-67789000D01*
G75*
G02*
X117033000Y-67689000I100000J0D01*
G01*
X118308000Y-67689000D01*
G75*
G02*
X118408000Y-67789000I0J-100000D01*
G01*
X118408000Y-67989000D01*
G75*
G02*
X118308000Y-68089000I-100000J0D01*
G01*
X117033000Y-68089000D01*
G75*
G02*
X116933000Y-67989000I0J100000D01*
G01*
G37*
%TD.AperFunction*%
%TO.P,U1,11*%
%TO.N,/CH3*%
%TA.AperFunction,SMDPad,CuDef*%
G36*
G01*
X116933000Y-68639000D02*
X116933000Y-68439000D01*
G75*
G02*
X117033000Y-68339000I100000J0D01*
G01*
X118308000Y-68339000D01*
G75*
G02*
X118408000Y-68439000I0J-100000D01*
G01*
X118408000Y-68639000D01*
G75*
G02*
X118308000Y-68739000I-100000J0D01*
G01*
X117033000Y-68739000D01*
G75*
G02*
X116933000Y-68639000I0J100000D01*
G01*
G37*
%TD.AperFunction*%
%TO.P,U1,10*%
%TO.N,Net-(U1-Pad10)*%
%TA.AperFunction,SMDPad,CuDef*%
G36*
G01*
X116933000Y-69289000D02*
X116933000Y-69089000D01*
G75*
G02*
X117033000Y-68989000I100000J0D01*
G01*
X118308000Y-68989000D01*
G75*
G02*
X118408000Y-69089000I0J-100000D01*
G01*
X118408000Y-69289000D01*
G75*
G02*
X118308000Y-69389000I-100000J0D01*
G01*
X117033000Y-69389000D01*
G75*
G02*
X116933000Y-69289000I0J100000D01*
G01*
G37*
%TD.AperFunction*%
%TO.P,U1,9*%
%TO.N,Net-(R1-Pad2)*%
%TA.AperFunction,SMDPad,CuDef*%
G36*
G01*
X116933000Y-69939000D02*
X116933000Y-69739000D01*
G75*
G02*
X117033000Y-69639000I100000J0D01*
G01*
X118308000Y-69639000D01*
G75*
G02*
X118408000Y-69739000I0J-100000D01*
G01*
X118408000Y-69939000D01*
G75*
G02*
X118308000Y-70039000I-100000J0D01*
G01*
X117033000Y-70039000D01*
G75*
G02*
X116933000Y-69939000I0J100000D01*
G01*
G37*
%TD.AperFunction*%
%TO.P,U1,8*%
%TO.N,GND*%
%TA.AperFunction,SMDPad,CuDef*%
G36*
G01*
X111208000Y-69939000D02*
X111208000Y-69739000D01*
G75*
G02*
X111308000Y-69639000I100000J0D01*
G01*
X112583000Y-69639000D01*
G75*
G02*
X112683000Y-69739000I0J-100000D01*
G01*
X112683000Y-69939000D01*
G75*
G02*
X112583000Y-70039000I-100000J0D01*
G01*
X111308000Y-70039000D01*
G75*
G02*
X111208000Y-69939000I0J100000D01*
G01*
G37*
%TD.AperFunction*%
%TO.P,U1,7*%
%TO.N,Net-(R1-Pad2)*%
%TA.AperFunction,SMDPad,CuDef*%
G36*
G01*
X111208000Y-69289000D02*
X111208000Y-69089000D01*
G75*
G02*
X111308000Y-68989000I100000J0D01*
G01*
X112583000Y-68989000D01*
G75*
G02*
X112683000Y-69089000I0J-100000D01*
G01*
X112683000Y-69289000D01*
G75*
G02*
X112583000Y-69389000I-100000J0D01*
G01*
X111308000Y-69389000D01*
G75*
G02*
X111208000Y-69289000I0J100000D01*
G01*
G37*
%TD.AperFunction*%
%TO.P,U1,6*%
%TO.N,Net-(U1-Pad6)*%
%TA.AperFunction,SMDPad,CuDef*%
G36*
G01*
X111208000Y-68639000D02*
X111208000Y-68439000D01*
G75*
G02*
X111308000Y-68339000I100000J0D01*
G01*
X112583000Y-68339000D01*
G75*
G02*
X112683000Y-68439000I0J-100000D01*
G01*
X112683000Y-68639000D01*
G75*
G02*
X112583000Y-68739000I-100000J0D01*
G01*
X111308000Y-68739000D01*
G75*
G02*
X111208000Y-68639000I0J100000D01*
G01*
G37*
%TD.AperFunction*%
%TO.P,U1,5*%
%TO.N,/CH4*%
%TA.AperFunction,SMDPad,CuDef*%
G36*
G01*
X111208000Y-67989000D02*
X111208000Y-67789000D01*
G75*
G02*
X111308000Y-67689000I100000J0D01*
G01*
X112583000Y-67689000D01*
G75*
G02*
X112683000Y-67789000I0J-100000D01*
G01*
X112683000Y-67989000D01*
G75*
G02*
X112583000Y-68089000I-100000J0D01*
G01*
X111308000Y-68089000D01*
G75*
G02*
X111208000Y-67989000I0J100000D01*
G01*
G37*
%TD.AperFunction*%
%TO.P,U1,4*%
%TO.N,/CH2*%
%TA.AperFunction,SMDPad,CuDef*%
G36*
G01*
X111208000Y-67339000D02*
X111208000Y-67139000D01*
G75*
G02*
X111308000Y-67039000I100000J0D01*
G01*
X112583000Y-67039000D01*
G75*
G02*
X112683000Y-67139000I0J-100000D01*
G01*
X112683000Y-67339000D01*
G75*
G02*
X112583000Y-67439000I-100000J0D01*
G01*
X111308000Y-67439000D01*
G75*
G02*
X111208000Y-67339000I0J100000D01*
G01*
G37*
%TD.AperFunction*%
%TO.P,U1,3*%
%TO.N,Net-(U1-Pad3)*%
%TA.AperFunction,SMDPad,CuDef*%
G36*
G01*
X111208000Y-66689000D02*
X111208000Y-66489000D01*
G75*
G02*
X111308000Y-66389000I100000J0D01*
G01*
X112583000Y-66389000D01*
G75*
G02*
X112683000Y-66489000I0J-100000D01*
G01*
X112683000Y-66689000D01*
G75*
G02*
X112583000Y-66789000I-100000J0D01*
G01*
X111308000Y-66789000D01*
G75*
G02*
X111208000Y-66689000I0J100000D01*
G01*
G37*
%TD.AperFunction*%
%TO.P,U1,2*%
%TO.N,Net-(R1-Pad2)*%
%TA.AperFunction,SMDPad,CuDef*%
G36*
G01*
X111208000Y-66039000D02*
X111208000Y-65839000D01*
G75*
G02*
X111308000Y-65739000I100000J0D01*
G01*
X112583000Y-65739000D01*
G75*
G02*
X112683000Y-65839000I0J-100000D01*
G01*
X112683000Y-66039000D01*
G75*
G02*
X112583000Y-66139000I-100000J0D01*
G01*
X111308000Y-66139000D01*
G75*
G02*
X111208000Y-66039000I0J100000D01*
G01*
G37*
%TD.AperFunction*%
%TO.P,U1,1*%
%TO.N,+3V3*%
%TA.AperFunction,SMDPad,CuDef*%
G36*
G01*
X111208000Y-65389000D02*
X111208000Y-65189000D01*
G75*
G02*
X111308000Y-65089000I100000J0D01*
G01*
X112583000Y-65089000D01*
G75*
G02*
X112683000Y-65189000I0J-100000D01*
G01*
X112683000Y-65389000D01*
G75*
G02*
X112583000Y-65489000I-100000J0D01*
G01*
X111308000Y-65489000D01*
G75*
G02*
X111208000Y-65389000I0J100000D01*
G01*
G37*
%TD.AperFunction*%
%TD*%
%TO.P,R6,2*%
%TO.N,GND*%
%TA.AperFunction,SMDPad,CuDef*%
G36*
G01*
X107042799Y-65627200D02*
X107942801Y-65627200D01*
G75*
G02*
X108192800Y-65877199I0J-249999D01*
G01*
X108192800Y-66402201D01*
G75*
G02*
X107942801Y-66652200I-249999J0D01*
G01*
X107042799Y-66652200D01*
G75*
G02*
X106792800Y-66402201I0J249999D01*
G01*
X106792800Y-65877199D01*
G75*
G02*
X107042799Y-65627200I249999J0D01*
G01*
G37*
%TD.AperFunction*%
%TO.P,R6,1*%
%TO.N,Net-(C7-Pad1)*%
%TA.AperFunction,SMDPad,CuDef*%
G36*
G01*
X107042799Y-63802200D02*
X107942801Y-63802200D01*
G75*
G02*
X108192800Y-64052199I0J-249999D01*
G01*
X108192800Y-64577201D01*
G75*
G02*
X107942801Y-64827200I-249999J0D01*
G01*
X107042799Y-64827200D01*
G75*
G02*
X106792800Y-64577201I0J249999D01*
G01*
X106792800Y-64052199D01*
G75*
G02*
X107042799Y-63802200I249999J0D01*
G01*
G37*
%TD.AperFunction*%
%TD*%
%TO.P,R3,2*%
%TO.N,Net-(R3-Pad2)*%
%TA.AperFunction,SMDPad,CuDef*%
G36*
G01*
X108171401Y-56470600D02*
X107271399Y-56470600D01*
G75*
G02*
X107021400Y-56220601I0J249999D01*
G01*
X107021400Y-55695599D01*
G75*
G02*
X107271399Y-55445600I249999J0D01*
G01*
X108171401Y-55445600D01*
G75*
G02*
X108421400Y-55695599I0J-249999D01*
G01*
X108421400Y-56220601D01*
G75*
G02*
X108171401Y-56470600I-249999J0D01*
G01*
G37*
%TD.AperFunction*%
%TO.P,R3,1*%
%TO.N,+3V3*%
%TA.AperFunction,SMDPad,CuDef*%
G36*
G01*
X108171401Y-58295600D02*
X107271399Y-58295600D01*
G75*
G02*
X107021400Y-58045601I0J249999D01*
G01*
X107021400Y-57520599D01*
G75*
G02*
X107271399Y-57270600I249999J0D01*
G01*
X108171401Y-57270600D01*
G75*
G02*
X108421400Y-57520599I0J-249999D01*
G01*
X108421400Y-58045601D01*
G75*
G02*
X108171401Y-58295600I-249999J0D01*
G01*
G37*
%TD.AperFunction*%
%TD*%
%TO.P,R2,2*%
%TO.N,Net-(C7-Pad1)*%
%TA.AperFunction,SMDPad,CuDef*%
G36*
G01*
X107245999Y-53867000D02*
X108146001Y-53867000D01*
G75*
G02*
X108396000Y-54116999I0J-249999D01*
G01*
X108396000Y-54642001D01*
G75*
G02*
X108146001Y-54892000I-249999J0D01*
G01*
X107245999Y-54892000D01*
G75*
G02*
X106996000Y-54642001I0J249999D01*
G01*
X106996000Y-54116999D01*
G75*
G02*
X107245999Y-53867000I249999J0D01*
G01*
G37*
%TD.AperFunction*%
%TO.P,R2,1*%
%TO.N,Net-(J10-Pad1)*%
%TA.AperFunction,SMDPad,CuDef*%
G36*
G01*
X107245999Y-52042000D02*
X108146001Y-52042000D01*
G75*
G02*
X108396000Y-52291999I0J-249999D01*
G01*
X108396000Y-52817001D01*
G75*
G02*
X108146001Y-53067000I-249999J0D01*
G01*
X107245999Y-53067000D01*
G75*
G02*
X106996000Y-52817001I0J249999D01*
G01*
X106996000Y-52291999D01*
G75*
G02*
X107245999Y-52042000I249999J0D01*
G01*
G37*
%TD.AperFunction*%
%TD*%
%TO.P,R1,2*%
%TO.N,Net-(R1-Pad2)*%
%TA.AperFunction,SMDPad,CuDef*%
G36*
G01*
X119437999Y-66567000D02*
X120338001Y-66567000D01*
G75*
G02*
X120588000Y-66816999I0J-249999D01*
G01*
X120588000Y-67342001D01*
G75*
G02*
X120338001Y-67592000I-249999J0D01*
G01*
X119437999Y-67592000D01*
G75*
G02*
X119188000Y-67342001I0J249999D01*
G01*
X119188000Y-66816999D01*
G75*
G02*
X119437999Y-66567000I249999J0D01*
G01*
G37*
%TD.AperFunction*%
%TO.P,R1,1*%
%TO.N,+3V3*%
%TA.AperFunction,SMDPad,CuDef*%
G36*
G01*
X119437999Y-64742000D02*
X120338001Y-64742000D01*
G75*
G02*
X120588000Y-64991999I0J-249999D01*
G01*
X120588000Y-65517001D01*
G75*
G02*
X120338001Y-65767000I-249999J0D01*
G01*
X119437999Y-65767000D01*
G75*
G02*
X119188000Y-65517001I0J249999D01*
G01*
X119188000Y-64991999D01*
G75*
G02*
X119437999Y-64742000I249999J0D01*
G01*
G37*
%TD.AperFunction*%
%TD*%
D19*
%TO.P,K2,1*%
%TO.N,Net-(J7-Pad1)*%
X137279500Y-63319500D03*
%TO.P,K2,2*%
%TO.N,Net-(K2-Pad2)*%
X137279500Y-66519500D03*
%TO.P,K2,3*%
%TO.N,/2+*%
X137279500Y-68719500D03*
%TO.P,K2,4*%
%TO.N,Net-(C5-Pad1)*%
X137279500Y-70919500D03*
%TO.P,K2,5*%
%TO.N,GND1*%
X144279500Y-70919500D03*
%TO.P,K2,6*%
%TO.N,/2-*%
X144279500Y-68719500D03*
%TO.P,K2,7*%
%TO.N,Net-(K1-Pad2)*%
X144279500Y-66519500D03*
%TO.P,K2,8*%
%TO.N,GND1*%
X144279500Y-63319500D03*
%TD*%
%TO.P,K1,1*%
%TO.N,Net-(J7-Pad1)*%
X137279500Y-52588000D03*
%TO.P,K1,2*%
%TO.N,Net-(K1-Pad2)*%
X137279500Y-55788000D03*
%TO.P,K1,3*%
%TO.N,/1+*%
X137279500Y-57988000D03*
%TO.P,K1,4*%
%TO.N,Net-(C3-Pad1)*%
X137279500Y-60188000D03*
%TO.P,K1,5*%
%TO.N,GND1*%
X144279500Y-60188000D03*
%TO.P,K1,6*%
%TO.N,/1-*%
X144279500Y-57988000D03*
%TO.P,K1,7*%
%TO.N,/O-*%
X144279500Y-55788000D03*
%TO.P,K1,8*%
%TO.N,GND1*%
X144279500Y-52588000D03*
%TD*%
D12*
%TO.P,J8,2*%
%TO.N,/1+*%
X148869400Y-62179200D03*
D13*
%TO.P,J8,1*%
%TO.N,/1-*%
X148869400Y-59639200D03*
%TD*%
D12*
%TO.P,J4,3*%
%TO.N,/CH2*%
X108712000Y-72263000D03*
%TO.P,J4,2*%
%TO.N,+BATT*%
X108712000Y-74803000D03*
D13*
%TO.P,J4,1*%
%TO.N,GND*%
X108712000Y-77343000D03*
%TD*%
D12*
%TO.P,J2,3*%
%TO.N,/CH3*%
X116332000Y-72263000D03*
%TO.P,J2,2*%
%TO.N,+BATT*%
X116332000Y-74803000D03*
D13*
%TO.P,J2,1*%
%TO.N,GND*%
X116332000Y-77343000D03*
%TD*%
D12*
%TO.P,J1,3*%
%TO.N,/CH4*%
X112522000Y-72263000D03*
%TO.P,J1,2*%
%TO.N,+BATT*%
X112522000Y-74803000D03*
D13*
%TO.P,J1,1*%
%TO.N,GND*%
X112522000Y-77343000D03*
%TD*%
D17*
%TO.P,D1,4*%
%TO.N,N/C*%
X134289800Y-56565800D03*
%TO.P,D1,3*%
%TO.N,Net-(D1-Pad3)*%
X134289800Y-55295800D03*
%TO.P,D1,2*%
%TO.N,Net-(D1-Pad2)*%
X134289800Y-54025800D03*
D18*
%TO.P,D1,1*%
%TO.N,Net-(D1-Pad1)*%
X134289800Y-52755800D03*
%TD*%
%TO.P,C5,2*%
%TO.N,GND1*%
%TA.AperFunction,SMDPad,CuDef*%
G36*
G01*
X136126200Y-74922800D02*
X137076200Y-74922800D01*
G75*
G02*
X137326200Y-75172800I0J-250000D01*
G01*
X137326200Y-75672800D01*
G75*
G02*
X137076200Y-75922800I-250000J0D01*
G01*
X136126200Y-75922800D01*
G75*
G02*
X135876200Y-75672800I0J250000D01*
G01*
X135876200Y-75172800D01*
G75*
G02*
X136126200Y-74922800I250000J0D01*
G01*
G37*
%TD.AperFunction*%
%TO.P,C5,1*%
%TO.N,Net-(C5-Pad1)*%
%TA.AperFunction,SMDPad,CuDef*%
G36*
G01*
X136126200Y-73022800D02*
X137076200Y-73022800D01*
G75*
G02*
X137326200Y-73272800I0J-250000D01*
G01*
X137326200Y-73772800D01*
G75*
G02*
X137076200Y-74022800I-250000J0D01*
G01*
X136126200Y-74022800D01*
G75*
G02*
X135876200Y-73772800I0J250000D01*
G01*
X135876200Y-73272800D01*
G75*
G02*
X136126200Y-73022800I250000J0D01*
G01*
G37*
%TD.AperFunction*%
%TD*%
%TO.P,C3,2*%
%TO.N,GND1*%
%TA.AperFunction,SMDPad,CuDef*%
G36*
G01*
X134892200Y-60723800D02*
X134892200Y-59773800D01*
G75*
G02*
X135142200Y-59523800I250000J0D01*
G01*
X135642200Y-59523800D01*
G75*
G02*
X135892200Y-59773800I0J-250000D01*
G01*
X135892200Y-60723800D01*
G75*
G02*
X135642200Y-60973800I-250000J0D01*
G01*
X135142200Y-60973800D01*
G75*
G02*
X134892200Y-60723800I0J250000D01*
G01*
G37*
%TD.AperFunction*%
%TO.P,C3,1*%
%TO.N,Net-(C3-Pad1)*%
%TA.AperFunction,SMDPad,CuDef*%
G36*
G01*
X132992200Y-60723800D02*
X132992200Y-59773800D01*
G75*
G02*
X133242200Y-59523800I250000J0D01*
G01*
X133742200Y-59523800D01*
G75*
G02*
X133992200Y-59773800I0J-250000D01*
G01*
X133992200Y-60723800D01*
G75*
G02*
X133742200Y-60973800I-250000J0D01*
G01*
X133242200Y-60973800D01*
G75*
G02*
X132992200Y-60723800I0J250000D01*
G01*
G37*
%TD.AperFunction*%
%TD*%
%TO.P,C2,2*%
%TO.N,GND*%
%TA.AperFunction,SMDPad,CuDef*%
G36*
G01*
X109253000Y-66617000D02*
X110203000Y-66617000D01*
G75*
G02*
X110453000Y-66867000I0J-250000D01*
G01*
X110453000Y-67367000D01*
G75*
G02*
X110203000Y-67617000I-250000J0D01*
G01*
X109253000Y-67617000D01*
G75*
G02*
X109003000Y-67367000I0J250000D01*
G01*
X109003000Y-66867000D01*
G75*
G02*
X109253000Y-66617000I250000J0D01*
G01*
G37*
%TD.AperFunction*%
%TO.P,C2,1*%
%TO.N,+3V3*%
%TA.AperFunction,SMDPad,CuDef*%
G36*
G01*
X109253000Y-64717000D02*
X110203000Y-64717000D01*
G75*
G02*
X110453000Y-64967000I0J-250000D01*
G01*
X110453000Y-65467000D01*
G75*
G02*
X110203000Y-65717000I-250000J0D01*
G01*
X109253000Y-65717000D01*
G75*
G02*
X109003000Y-65467000I0J250000D01*
G01*
X109003000Y-64967000D01*
G75*
G02*
X109253000Y-64717000I250000J0D01*
G01*
G37*
%TD.AperFunction*%
%TD*%
D20*
%TO.P,U2,7*%
%TO.N,+3V3*%
X109474000Y-63563500D03*
%TO.P,U2,6*%
%TO.N,N/C*%
X109474000Y-62039500D03*
%TO.P,U2,5*%
%TO.N,Net-(U1-Pad3)*%
X109474000Y-60515500D03*
%TO.P,U2,4*%
%TO.N,Net-(U1-Pad10)*%
X109474000Y-58991500D03*
%TO.P,U2,3*%
%TO.N,Net-(U1-Pad6)*%
X109474000Y-57467500D03*
%TO.P,U2,2*%
%TO.N,Net-(R3-Pad2)*%
X109474000Y-55943500D03*
%TO.P,U2,1*%
%TO.N,Net-(C7-Pad1)*%
X109474000Y-54419500D03*
%TO.P,U2,8*%
%TO.N,GND*%
X121793000Y-63563500D03*
%TO.P,U2,9*%
%TO.N,N/C*%
X121793000Y-62039500D03*
%TO.P,U2,10*%
%TO.N,/Flash*%
X121793000Y-60515500D03*
%TO.P,U2,11*%
%TO.N,N/C*%
X121793000Y-58991500D03*
%TO.P,U2,12*%
X121793000Y-57467500D03*
%TO.P,U2,13*%
%TO.N,/Rx*%
X121793000Y-55943500D03*
%TO.P,U2,14*%
%TO.N,/Tx*%
X121793000Y-54419500D03*
%TO.P,U2,15*%
%TO.N,/RST*%
X121793000Y-52895500D03*
%TO.P,U2,16*%
%TO.N,Net-(U1-Pad14)*%
X121793000Y-51371500D03*
%TD*%
D13*
%TO.P,J3,1*%
%TO.N,+3V3*%
X124650500Y-52578000D03*
D12*
%TO.P,J3,2*%
%TO.N,/RST*%
X124650500Y-55118000D03*
%TO.P,J3,3*%
%TO.N,/Flash*%
X124650500Y-57658000D03*
%TO.P,J3,4*%
%TO.N,/Tx*%
X124650500Y-60198000D03*
%TO.P,J3,5*%
%TO.N,/Rx*%
X124650500Y-62738000D03*
%TO.P,J3,6*%
%TO.N,GND*%
X124650500Y-65278000D03*
%TD*%
%TO.P,C7,1*%
%TO.N,Net-(C7-Pad1)*%
%TA.AperFunction,SMDPad,CuDef*%
G36*
G01*
X107043200Y-67206200D02*
X107993200Y-67206200D01*
G75*
G02*
X108243200Y-67456200I0J-250000D01*
G01*
X108243200Y-67956200D01*
G75*
G02*
X107993200Y-68206200I-250000J0D01*
G01*
X107043200Y-68206200D01*
G75*
G02*
X106793200Y-67956200I0J250000D01*
G01*
X106793200Y-67456200D01*
G75*
G02*
X107043200Y-67206200I250000J0D01*
G01*
G37*
%TD.AperFunction*%
%TO.P,C7,2*%
%TO.N,GND*%
%TA.AperFunction,SMDPad,CuDef*%
G36*
G01*
X107043200Y-69106200D02*
X107993200Y-69106200D01*
G75*
G02*
X108243200Y-69356200I0J-250000D01*
G01*
X108243200Y-69856200D01*
G75*
G02*
X107993200Y-70106200I-250000J0D01*
G01*
X107043200Y-70106200D01*
G75*
G02*
X106793200Y-69856200I0J250000D01*
G01*
X106793200Y-69356200D01*
G75*
G02*
X107043200Y-69106200I250000J0D01*
G01*
G37*
%TD.AperFunction*%
%TD*%
D21*
%TO.N,GND*%
X123269156Y-68526253D03*
%TO.N,+3V3*%
X123317000Y-70307206D03*
X121361200Y-66065402D03*
X107772200Y-62406811D03*
X107772196Y-60756800D03*
%TO.N,Net-(C3-Pad1)*%
X132247705Y-58464686D03*
%TO.N,Net-(C5-Pad1)*%
X135178798Y-68554600D03*
%TO.N,+BATT*%
X122529238Y-64794894D03*
%TO.N,Net-(J7-Pad1)*%
X131927600Y-51054000D03*
X132181600Y-60248800D03*
D22*
%TO.N,Net-(K2-Pad2)*%
X146888200Y-75514200D03*
D21*
%TO.N,Net-(R1-Pad2)*%
X119380000Y-69596000D03*
X121361200Y-67792600D03*
%TO.N,Net-(U1-Pad6)*%
X110185200Y-69824600D03*
X107825401Y-59381155D03*
%TO.N,/1+*%
X146075400Y-63169800D03*
%TO.N,/1-*%
X146354800Y-54864002D03*
%TO.N,/2+*%
X146075400Y-64998600D03*
%TO.N,/2-*%
X146075400Y-69646800D03*
%TO.N,GND1*%
X136245600Y-77063600D03*
X146075402Y-71577200D03*
%TO.N,Net-(J10-Pad1)*%
X126314200Y-74066400D03*
X107696000Y-51257200D03*
%TO.N,/O-*%
X146380200Y-53644800D03*
%TD*%
D23*
%TO.N,GND*%
X112892000Y-69839000D02*
X111945500Y-69839000D01*
X113919000Y-70866000D02*
X112892000Y-69839000D01*
X113919000Y-73025000D02*
X113919000Y-70866000D01*
X113411000Y-73533000D02*
X113919000Y-73025000D01*
X107188000Y-73533000D02*
X113411000Y-73533000D01*
X123269156Y-66659344D02*
X123269156Y-68526253D01*
X124650500Y-65278000D02*
X123269156Y-66659344D01*
X122543000Y-63563500D02*
X124257500Y-65278000D01*
X124257500Y-65278000D02*
X124650500Y-65278000D01*
X121793000Y-63563500D02*
X122543000Y-63563500D01*
X123269156Y-68526253D02*
X122326400Y-69469009D01*
X108712000Y-77343000D02*
X108712000Y-77139800D01*
X108712000Y-77139800D02*
X109626400Y-76225400D01*
X111404400Y-76225400D02*
X112522000Y-77343000D01*
X109626400Y-76225400D02*
X111404400Y-76225400D01*
X112522000Y-77343000D02*
X112522000Y-77317600D01*
X112522000Y-77317600D02*
X113538000Y-76301600D01*
X115290600Y-76301600D02*
X116332000Y-77343000D01*
X113538000Y-76301600D02*
X115290600Y-76301600D01*
X116332000Y-77343000D02*
X116332000Y-77317600D01*
X116332000Y-77317600D02*
X117373400Y-76276200D01*
X117373400Y-76276200D02*
X119075200Y-76276200D01*
X119075200Y-76276200D02*
X120142000Y-77343000D01*
X107492800Y-66139700D02*
X107846500Y-66139700D01*
X108823800Y-67117000D02*
X109728000Y-67117000D01*
X107846500Y-66139700D02*
X108823800Y-67117000D01*
X107518200Y-69326800D02*
X107518200Y-69606200D01*
X109728000Y-67117000D02*
X107518200Y-69326800D01*
X107188000Y-69936400D02*
X107518200Y-69606200D01*
X107188000Y-73914000D02*
X107188000Y-69936400D01*
X107188000Y-73533000D02*
X107188000Y-73914000D01*
X122326400Y-69469009D02*
X122326400Y-74295000D01*
X122326400Y-74295000D02*
X122326400Y-76301600D01*
X121183400Y-76301600D02*
X120142000Y-77343000D01*
X122910600Y-76301600D02*
X123977400Y-77368400D01*
X121932700Y-76301600D02*
X122910600Y-76301600D01*
X122326400Y-76301600D02*
X121932700Y-76301600D01*
X121932700Y-76301600D02*
X121183400Y-76301600D01*
X108572300Y-77343000D02*
X107188000Y-75958700D01*
X108712000Y-77343000D02*
X108572300Y-77343000D01*
X107188000Y-73914000D02*
X107188000Y-75958700D01*
%TO.N,+3V3*%
X109982000Y-64963000D02*
X109728000Y-65217000D01*
X111873500Y-65217000D02*
X111945500Y-65289000D01*
X109728000Y-65217000D02*
X111873500Y-65217000D01*
X123340500Y-71731500D02*
X123317000Y-71755000D01*
X106870999Y-58379501D02*
X106870999Y-60071499D01*
X106870999Y-58252501D02*
X106870999Y-60071499D01*
X107188000Y-57935500D02*
X106870999Y-58252501D01*
X109474000Y-64963000D02*
X109728000Y-65217000D01*
X109474000Y-63563500D02*
X109474000Y-64963000D01*
X123445900Y-71629900D02*
X123317000Y-71501000D01*
X123317000Y-71501000D02*
X123317000Y-71755000D01*
X123317000Y-70104000D02*
X123317000Y-71501000D01*
X124650500Y-52578000D02*
X126725521Y-54653021D01*
X124815600Y-69898900D02*
X123725306Y-69898900D01*
X123725306Y-69898900D02*
X123317000Y-70307206D01*
X123317000Y-70294500D02*
X123317000Y-70307206D01*
X123420500Y-70191000D02*
X123317000Y-70294500D01*
X119888000Y-65254500D02*
X120550298Y-65254500D01*
X120550298Y-65254500D02*
X121361200Y-66065402D01*
X123496700Y-71856600D02*
X123496700Y-72772900D01*
X123496700Y-72772900D02*
X123774200Y-73050400D01*
X126044642Y-73050400D02*
X126725521Y-72369521D01*
X123774200Y-73050400D02*
X126044642Y-73050400D01*
X126725521Y-54653021D02*
X126725521Y-72369521D01*
X107556300Y-60756800D02*
X107772196Y-60756800D01*
X106870999Y-60071499D02*
X107556300Y-60756800D01*
X107772200Y-62406811D02*
X108203011Y-62406811D01*
X109359700Y-63563500D02*
X109474000Y-63563500D01*
X108203011Y-62406811D02*
X109359700Y-63563500D01*
%TO.N,Net-(C3-Pad1)*%
X133492200Y-58506400D02*
X133533914Y-58464686D01*
X133492200Y-60248800D02*
X133492200Y-58506400D01*
X133533914Y-58464686D02*
X132247705Y-58464686D01*
X135111686Y-58464686D02*
X134930914Y-58464686D01*
X135146276Y-58464686D02*
X136869590Y-60188000D01*
X133851886Y-58464686D02*
X135146276Y-58464686D01*
X136869590Y-60188000D02*
X137279500Y-60188000D01*
X134930914Y-58464686D02*
X133851886Y-58464686D01*
X133851886Y-58464686D02*
X133533914Y-58464686D01*
%TO.N,Net-(C5-Pad1)*%
X135178798Y-69318798D02*
X135178798Y-68554600D01*
X136779500Y-70919500D02*
X135178798Y-69318798D01*
X137279500Y-70919500D02*
X136779500Y-70919500D01*
X136601200Y-71597800D02*
X137279500Y-70919500D01*
X136601200Y-73522800D02*
X136601200Y-71597800D01*
%TO.N,+BATT*%
X108712000Y-74803000D02*
X112522000Y-74803000D01*
X112522000Y-74803000D02*
X116332000Y-74803000D01*
X116332000Y-74803000D02*
X120142000Y-74803000D01*
X120777000Y-64262000D02*
X121309894Y-64794894D01*
X121309894Y-64794894D02*
X122529238Y-64794894D01*
X117670500Y-65289000D02*
X118697500Y-64262000D01*
X118697500Y-64262000D02*
X120777000Y-64262000D01*
X121031000Y-73914000D02*
X120142000Y-74803000D01*
X121666000Y-73279000D02*
X121031000Y-73914000D01*
X121666000Y-68961000D02*
X121666000Y-73279000D01*
X122444155Y-64879977D02*
X122444155Y-68182845D01*
X122444155Y-68182845D02*
X121666000Y-68961000D01*
X122529238Y-64794894D02*
X122444155Y-64879977D01*
%TO.N,/Flash*%
X124650500Y-57658000D02*
X125825501Y-58833001D01*
X121793000Y-60515500D02*
X121843000Y-60515500D01*
X122682000Y-61354500D02*
X122682000Y-62890400D01*
X121843000Y-60515500D02*
X122682000Y-61354500D01*
X122682000Y-62890400D02*
X123799600Y-64008000D01*
X124815600Y-67106800D02*
X125825501Y-66096899D01*
X124815600Y-68073900D02*
X124815600Y-67106800D01*
X123799600Y-64008000D02*
X125730000Y-64008000D01*
X125825501Y-64103501D02*
X125825501Y-66096899D01*
X125730000Y-64008000D02*
X125825501Y-64103501D01*
X125825501Y-58833001D02*
X125825501Y-64103501D01*
%TO.N,/RST*%
X122428000Y-52895500D02*
X124650500Y-55118000D01*
X121793000Y-52895500D02*
X122428000Y-52895500D01*
X124650500Y-55118000D02*
X126275511Y-56743011D01*
X125501400Y-71856600D02*
X126275511Y-71082489D01*
X125321700Y-71856600D02*
X125501400Y-71856600D01*
X126275511Y-56743011D02*
X126275511Y-71082489D01*
%TO.N,Net-(J7-Pad1)*%
X137279500Y-52588000D02*
X137279500Y-52341900D01*
X135991600Y-51054000D02*
X131927600Y-51054000D01*
X137279500Y-52341900D02*
X135991600Y-51054000D01*
X137279500Y-63319500D02*
X137279500Y-63111500D01*
X137279500Y-63111500D02*
X135737600Y-61569600D01*
X132181600Y-60921900D02*
X132829300Y-61569600D01*
X132181600Y-60248800D02*
X132181600Y-60921900D01*
X135737600Y-61569600D02*
X132829300Y-61569600D01*
%TO.N,Net-(K1-Pad2)*%
X136363000Y-55915000D02*
X136962000Y-55915000D01*
X135940800Y-56337200D02*
X136363000Y-55915000D01*
X135940800Y-58534302D02*
X135940800Y-56337200D01*
X136461498Y-59055000D02*
X135940800Y-58534302D01*
X139674600Y-59055000D02*
X136461498Y-59055000D01*
X142113000Y-65659000D02*
X142113000Y-61493400D01*
X142973500Y-66519500D02*
X142113000Y-65659000D01*
X142113000Y-61493400D02*
X139674600Y-59055000D01*
X144279500Y-66519500D02*
X142973500Y-66519500D01*
%TO.N,Net-(K2-Pad2)*%
X136054499Y-69379501D02*
X136524998Y-69850000D01*
X136054499Y-66967701D02*
X136054499Y-69379501D01*
X136502700Y-66519500D02*
X136054499Y-66967701D01*
X137279500Y-66519500D02*
X136502700Y-66519500D01*
X141909800Y-71348600D02*
X140411200Y-69850000D01*
X136524998Y-69850000D02*
X140411200Y-69850000D01*
X141909800Y-71348600D02*
X143230600Y-72669400D01*
X143230600Y-72669400D02*
X146126200Y-72669400D01*
X146126200Y-72669400D02*
X146888200Y-73431400D01*
X146888200Y-75514200D02*
X146888200Y-73431400D01*
%TO.N,Net-(R3-Pad2)*%
X107291500Y-56007000D02*
X107188000Y-56110500D01*
X107418500Y-56007000D02*
X107315000Y-56110500D01*
X109307000Y-56110500D02*
X109474000Y-55943500D01*
X107315000Y-56110500D02*
X109307000Y-56110500D01*
%TO.N,/Tx*%
X122555000Y-54419500D02*
X121793000Y-54419500D01*
X123259010Y-55123510D02*
X122555000Y-54419500D01*
X123259010Y-59632010D02*
X123259010Y-55123510D01*
X123825000Y-60198000D02*
X123259010Y-59632010D01*
X124650500Y-60198000D02*
X123825000Y-60198000D01*
%TO.N,/Rx*%
X123132010Y-60646600D02*
X123132010Y-62362510D01*
X122809000Y-60323590D02*
X123132010Y-60646600D01*
X122809000Y-56388000D02*
X122809000Y-60323590D01*
X122364500Y-55943500D02*
X122809000Y-56388000D01*
X121793000Y-55943500D02*
X122364500Y-55943500D01*
X123507500Y-62738000D02*
X123132010Y-62362510D01*
X124650500Y-62738000D02*
X123507500Y-62738000D01*
%TO.N,Net-(R1-Pad2)*%
X119499558Y-67079500D02*
X119888000Y-67079500D01*
X118359058Y-65939000D02*
X119499558Y-67079500D01*
X117670500Y-65939000D02*
X118359058Y-65939000D01*
X119137000Y-69839000D02*
X119380000Y-69596000D01*
X117670500Y-69839000D02*
X119137000Y-69839000D01*
X115559000Y-69839000D02*
X117670500Y-69839000D01*
X120648100Y-67079500D02*
X121361200Y-67792600D01*
X119888000Y-67079500D02*
X120648100Y-67079500D01*
X117670500Y-69839000D02*
X114568400Y-69839000D01*
X113868200Y-69138800D02*
X113868200Y-66421000D01*
X113386200Y-65939000D02*
X111945500Y-65939000D01*
X113868200Y-66421000D02*
X113386200Y-65939000D01*
X113918400Y-69189000D02*
X113957100Y-69227700D01*
X111945500Y-69189000D02*
X113918400Y-69189000D01*
X113957100Y-69227700D02*
X113868200Y-69138800D01*
X114568400Y-69839000D02*
X113957100Y-69227700D01*
%TO.N,Net-(U1-Pad3)*%
X110786000Y-66167000D02*
X111208000Y-66589000D01*
X108648999Y-65799199D02*
X109016800Y-66167000D01*
X108648999Y-63640199D02*
X108648999Y-65799199D01*
X108280200Y-63271400D02*
X108648999Y-63640199D01*
X107289600Y-63271400D02*
X108280200Y-63271400D01*
X106896398Y-62878198D02*
X107289600Y-63271400D01*
X106896398Y-61937402D02*
X106896398Y-62878198D01*
X107251999Y-61581801D02*
X106896398Y-61937402D01*
X108407699Y-61581801D02*
X107251999Y-61581801D01*
X111208000Y-66589000D02*
X111945500Y-66589000D01*
X109016800Y-66167000D02*
X110786000Y-66167000D01*
X109474000Y-60515500D02*
X108407699Y-61581801D01*
%TO.N,Net-(U1-Pad14)*%
X121729500Y-51435000D02*
X121793000Y-51371500D01*
X117195600Y-51435000D02*
X121729500Y-51435000D01*
X117195600Y-51435000D02*
X117475000Y-51435000D01*
X117670500Y-66589000D02*
X116449200Y-66589000D01*
X116449200Y-66589000D02*
X115824000Y-65963800D01*
X115824000Y-52451000D02*
X116840000Y-51435000D01*
X115824000Y-65963800D02*
X115824000Y-52451000D01*
X116840000Y-51435000D02*
X117195600Y-51435000D01*
%TO.N,Net-(U1-Pad10)*%
X117670500Y-69189000D02*
X115772600Y-69189000D01*
X115772600Y-69189000D02*
X114808000Y-68224400D01*
X114808000Y-68224400D02*
X114808000Y-60020200D01*
X113779300Y-58991500D02*
X111899700Y-58991500D01*
X114808000Y-60020200D02*
X113779300Y-58991500D01*
X109474000Y-58991500D02*
X111899700Y-58991500D01*
%TO.N,Net-(U1-Pad6)*%
X110185200Y-69583570D02*
X110185200Y-69824600D01*
X111945500Y-68539000D02*
X111229770Y-68539000D01*
X111229770Y-68539000D02*
X110185200Y-69583570D01*
X107823000Y-59140000D02*
X107823000Y-59378754D01*
X107823000Y-59378754D02*
X107825401Y-59381155D01*
X107825401Y-59204789D02*
X107825401Y-59381155D01*
X109474000Y-57556190D02*
X107825401Y-59204789D01*
X109474000Y-57467500D02*
X109474000Y-57556190D01*
%TO.N,/1+*%
X140665000Y-57988000D02*
X141732000Y-59055000D01*
X141732000Y-59055000D02*
X145415000Y-59055000D01*
X145415000Y-59055000D02*
X146075400Y-59715400D01*
X137279500Y-57988000D02*
X140665000Y-57988000D01*
X146075400Y-59715400D02*
X146075400Y-63169800D01*
%TO.N,/1-*%
X144279500Y-57988000D02*
X145631100Y-57988000D01*
X146354800Y-57264300D02*
X146354800Y-54864002D01*
X145631100Y-57988000D02*
X146354800Y-57264300D01*
%TO.N,/2+*%
X146075400Y-67245012D02*
X146075400Y-64998600D01*
X145451612Y-67868800D02*
X146075400Y-67245012D01*
X140957500Y-68719500D02*
X141808200Y-67868800D01*
X137279500Y-68719500D02*
X140957500Y-68719500D01*
X141808200Y-67868800D02*
X145451612Y-67868800D01*
%TO.N,/2-*%
X144279500Y-68719500D02*
X145148100Y-68719500D01*
X145148100Y-68719500D02*
X146075400Y-69646800D01*
%TO.N,GND1*%
X144279500Y-60188000D02*
X144279500Y-63319500D01*
X144279500Y-70919500D02*
X146040000Y-70919500D01*
X136245600Y-77048400D02*
X136245600Y-77063600D01*
X136601200Y-76708000D02*
X136245600Y-77063600D01*
X136601200Y-75422800D02*
X136601200Y-76708000D01*
X134021500Y-75166500D02*
X134291500Y-74896500D01*
X146040000Y-70919500D02*
X146281300Y-70919500D01*
X146281300Y-70919500D02*
X148282500Y-70919500D01*
X146075402Y-71125398D02*
X146075402Y-71577200D01*
X146278600Y-71374002D02*
X146075402Y-71577200D01*
X146278600Y-71158100D02*
X146278600Y-71374002D01*
X146281300Y-70919500D02*
X146075402Y-71125398D01*
X145351500Y-67322700D02*
X144310100Y-67322700D01*
X145504501Y-67179501D02*
X145504501Y-65926301D01*
X145361302Y-67322700D02*
X145504501Y-67179501D01*
X144310100Y-67322700D02*
X145361302Y-67322700D01*
X145272999Y-65772801D02*
X144279500Y-64779302D01*
X145504501Y-65926301D02*
X145351001Y-65772801D01*
X145351001Y-65772801D02*
X145272999Y-65772801D01*
X147205201Y-53885601D02*
X147574000Y-54254400D01*
X147205201Y-53047401D02*
X147205201Y-53885601D01*
X146745800Y-52588000D02*
X147205201Y-53047401D01*
X144279500Y-52588000D02*
X146745800Y-52588000D01*
X148942900Y-70919500D02*
X148719700Y-70919500D01*
X148719700Y-70919500D02*
X148282500Y-70919500D01*
X150215600Y-67868800D02*
X150215600Y-70358000D01*
X150215600Y-70358000D02*
X149654100Y-70919500D01*
X148942900Y-70919500D02*
X149654100Y-70919500D01*
X150215600Y-54660800D02*
X149809200Y-54254400D01*
X150215600Y-63830200D02*
X150215600Y-54660800D01*
X147574000Y-54254400D02*
X149809200Y-54254400D01*
X150215600Y-63957200D02*
X150215600Y-63830200D01*
X150081100Y-64076700D02*
X150215600Y-64211200D01*
X144279500Y-64076700D02*
X150081100Y-64076700D01*
X150215600Y-64211200D02*
X150215600Y-63957200D01*
X150215600Y-67868800D02*
X150215600Y-64211200D01*
X144279500Y-64779302D02*
X144279500Y-64076700D01*
X144279500Y-64076700D02*
X144279500Y-63319500D01*
X137043200Y-61899800D02*
X135392200Y-60248800D01*
X140131800Y-61899800D02*
X137043200Y-61899800D01*
X140766800Y-62534800D02*
X140131800Y-61899800D01*
X140766800Y-66230500D02*
X140766800Y-62534800D01*
X141859000Y-67322700D02*
X140766800Y-66230500D01*
X144310100Y-67322700D02*
X141859000Y-67322700D01*
%TO.N,/CH4*%
X111243352Y-67889000D02*
X111945500Y-67889000D01*
X110208798Y-68580000D02*
X110552352Y-68580000D01*
X109347000Y-70485000D02*
X109347000Y-69441798D01*
X109347000Y-69441798D02*
X110208798Y-68580000D01*
X110045500Y-71183500D02*
X109347000Y-70485000D01*
X110552352Y-68580000D02*
X111243352Y-67889000D01*
X111442500Y-71183500D02*
X110045500Y-71183500D01*
X112522000Y-72263000D02*
X111442500Y-71183500D01*
%TO.N,/CH3*%
X119872400Y-68539000D02*
X117670500Y-68539000D01*
X120396000Y-69062600D02*
X119872400Y-68539000D01*
X120396000Y-70180200D02*
X120396000Y-69062600D01*
X119837200Y-70739000D02*
X120396000Y-70180200D01*
X117856000Y-70739000D02*
X119837200Y-70739000D01*
X116332000Y-72263000D02*
X117856000Y-70739000D01*
%TO.N,/CH2*%
X111256942Y-67239000D02*
X111945500Y-67239000D01*
X110423942Y-68072000D02*
X111256942Y-67239000D01*
X110080388Y-68072000D02*
X110423942Y-68072000D01*
X108712000Y-69440388D02*
X110080388Y-68072000D01*
X108712000Y-72263000D02*
X108712000Y-69440388D01*
%TO.N,/CH1*%
X118408000Y-67239000D02*
X117670500Y-67239000D01*
X119137990Y-67968990D02*
X118408000Y-67239000D01*
X120343388Y-67968990D02*
X119137990Y-67968990D01*
X120991999Y-68617601D02*
X120343388Y-67968990D01*
X120991999Y-71413001D02*
X120991999Y-68617601D01*
X120142000Y-72263000D02*
X120991999Y-71413001D01*
%TO.N,Net-(J10-Pad1)*%
X125552200Y-74828400D02*
X126314200Y-74066400D01*
X123977400Y-74828400D02*
X125552200Y-74828400D01*
X107696000Y-51257200D02*
X107696000Y-52554500D01*
%TO.N,/O-*%
X144378000Y-55499000D02*
X143962000Y-55915000D01*
X145066034Y-53644800D02*
X146380200Y-53644800D01*
X144279500Y-54431334D02*
X145066034Y-53644800D01*
X144279500Y-55788000D02*
X144279500Y-54431334D01*
%TO.N,Net-(C7-Pad1)*%
X107799500Y-54483000D02*
X107696000Y-54379500D01*
X109434000Y-54379500D02*
X109474000Y-54419500D01*
X107696000Y-54379500D02*
X109434000Y-54379500D01*
X106593600Y-67706200D02*
X107518200Y-67706200D01*
X106420989Y-67533589D02*
X106593600Y-67706200D01*
X107696000Y-54379500D02*
X106420989Y-55654511D01*
X106478700Y-64314700D02*
X106420989Y-64256989D01*
X107492800Y-64314700D02*
X106478700Y-64314700D01*
X106420989Y-64256989D02*
X106420989Y-67533589D01*
X106420989Y-55654511D02*
X106420989Y-64256989D01*
%TD*%
M02*
